<svg xmlns:mydata="http://www.w3.org/2000/svg" mydata:contrastcolor="ffffff" mydata:template="Contrast" mydata:presentation="2.5" mydata:layouttype="undefined" mydata:specialfontid="undefined" mydata:id1="001" mydata:id2="001" mydata:companyname="Radiant View" mydata:companytagline="Imágenes claras, salud segura." version="1.1" xmlns="http://www.w3.org/2000/svg" xmlns:xlink="http://www.w3.org/1999/xlink" viewBox="0 0 550 470" style="background-color: rgb(0, 98, 152); background-image: radial-gradient(circle closest-side, rgba(255, 255, 255, 0.07) 0%, rgba(255, 255, 255, 0) 100%);"><defs style="animation-play-state: paused;"><linearGradient id="fade-smooth-gradient" gradientUnits="userSpaceOnUse" x2="0" y2="0" style="animation-play-state: paused;">
                <stop offset="0" stop-color="#FFFFFF" stop-opacity="1" style="animation-play-state: paused;"></stop>
                <stop offset="1" stop-color="#FFFFFF" stop-opacity="0" style="animation-play-state: paused;"></stop>
                <animate attributeName="x2" dur="2.5s" from="0" to="100%" values="0; 100%; 100%" repeatCount="indefinite" style="animation-play-state: paused;"></animate>
            </linearGradient>          
            <mask id="fade-smooth-mask" maskUnits="userSpaceOnUse" style="animation-play-state: paused;">
              <rect width="100%" height="100%" fill="url(#fade-smooth-gradient)" style="animation-play-state: paused;"></rect>
            </mask></defs><g fill="#ffffff" fill-rule="none" stroke="none" stroke-width="1" stroke-linecap="butt" stroke-linejoin="miter" stroke-miterlimit="10" stroke-dasharray="" stroke-dashoffset="0" font-family="none" font-weight="none" font-size="none" text-anchor="none" style="mix-blend-mode: normal; animation-play-state: paused;" mask="url(#fade-smooth-mask)"><g data-paper-data="{&quot;isGlobalGroup&quot;:true,&quot;bounds&quot;:{&quot;x&quot;:65,&quot;y&quot;:166.08805414541877,&quot;width&quot;:420,&quot;height&quot;:137.8238917091624}}" style="animation-play-state: paused;"><g data-paper-data="{&quot;textHeightFactor&quot;:0.3845131272848122,&quot;isSecondaryText&quot;:true}" fill-rule="nonzero" style="animation-play-state: paused;"><path d="M203.60495,246.83452h-1.69077v8.1266h1.69077z" data-paper-data="{&quot;glyphName&quot;:&quot;I&quot;,&quot;glyphIndex&quot;:0,&quot;firstGlyphOfWord&quot;:true,&quot;word&quot;:1}" style="animation-play-state: paused;"></path><path d="M211.757,249.97608l-4.33055,-3.28337v8.26841h1.69077v-4.89778l2.63978,1.90893l2.63978,-1.90893v4.89778h1.69077v-8.26841z" data-paper-data="{&quot;glyphName&quot;:&quot;M&quot;,&quot;glyphIndex&quot;:1,&quot;word&quot;:1}" style="animation-play-state: paused;"></path><path d="M224.2178,244.11838l-1.29808,2.02892h1.4617l0.85084,-1.29808zM225.81039,254.96112h1.84348l-4.29783,-8.26841l-4.28692,8.26841h1.74531l0.52359,-1.09082h3.93786zM223.2906,249.81246l1.24353,2.5307h-2.46525z" data-paper-data="{&quot;glyphName&quot;:&quot;Á&quot;,&quot;glyphIndex&quot;:2,&quot;word&quot;:1}" style="animation-play-state: paused;"></path><path d="M238.03121,250.52149h-4.16693v1.50533h2.20346c-0.35997,0.94901 -1.26535,1.45079 -2.24709,1.45079c-1.36352,0 -2.44344,-1.14536 -2.44344,-2.57433c0,-1.43988 1.07991,-2.59615 2.44344,-2.59615c0.95992,0 1.79985,0.54541 2.22527,1.34171l1.35262,-0.98174c-0.73085,-1.18899 -2.07256,-1.97438 -3.5888,-1.97438c-2.31254,0 -4.16693,1.88712 -4.16693,4.21056c0,2.32345 1.85439,4.19965 4.17784,4.19965c2.33435,0 4.21056,-1.93075 4.21056,-4.33055z" data-paper-data="{&quot;glyphName&quot;:&quot;G&quot;,&quot;glyphIndex&quot;:3,&quot;word&quot;:1}" style="animation-play-state: paused;"></path><path d="M246.53232,254.96112v-1.52715h-3.34882v-2.02892h3.05429v-1.52715h-3.05429v-1.51624h2.62887v-1.52715h-4.31964v8.1266z" data-paper-data="{&quot;glyphName&quot;:&quot;E&quot;,&quot;glyphIndex&quot;:4,&quot;word&quot;:1}" style="animation-play-state: paused;"></path><path d="M255.79702,251.53595l-5.78134,-4.85415v8.27932h1.69077v-4.66871l5.78134,4.81051v-8.26841h-1.69077z" data-paper-data="{&quot;glyphName&quot;:&quot;N&quot;,&quot;glyphIndex&quot;:5,&quot;word&quot;:1}" style="animation-play-state: paused;"></path><path d="M266.34888,254.96112v-1.52715h-3.34882v-2.02892h3.05429v-1.52715h-3.05429v-1.51624h2.62887v-1.52715h-4.31964v8.1266z" data-paper-data="{&quot;glyphName&quot;:&quot;E&quot;,&quot;glyphIndex&quot;:6,&quot;word&quot;:1}" style="animation-play-state: paused;"></path><path d="M271.78479,251.36142c0.78539,0.08727 1.22172,0.49087 1.22172,1.14536c0,0.52359 -0.43633,0.97083 -0.99265,0.97083c-0.47996,0 -0.86175,-0.11999 -1.23263,-0.58904l-1.39625,1.02537c0.77448,0.85084 1.70168,1.18899 2.62887,1.18899c1.42897,0 2.74886,-1.13445 2.74886,-2.71614c0,-1.57078 -1.14536,-2.50888 -2.5307,-2.59615c-0.86175,-0.05454 -1.13445,-0.39269 -1.13445,-0.76357c0,-0.44724 0.30543,-0.71994 0.75267,-0.71994c0.28361,0 0.64358,0.17453 0.86175,0.4036l1.3308,-0.97083c-0.62177,-0.74176 -1.38534,-1.04719 -2.19255,-1.04719c-1.12354,0 -2.38889,0.97083 -2.38889,2.34526c0,1.27626 0.91629,2.15982 2.32345,2.32345z" data-paper-data="{&quot;glyphName&quot;:&quot;S&quot;,&quot;glyphIndex&quot;:7,&quot;lastGlyphOfWord&quot;:true,&quot;word&quot;:1}" style="animation-play-state: paused;"></path><path d="M291.35046,251.37233c-0.22907,1.22172 -1.25444,2.10528 -2.47616,2.10528c-1.36352,0 -2.44344,-1.14536 -2.44344,-2.57433c0,-1.43988 1.07991,-2.59615 2.44344,-2.59615c0.83993,0 1.66895,0.42542 2.258,1.29808l1.31989,-0.9381c-0.73085,-1.18899 -2.07256,-1.97438 -3.5888,-1.97438c-2.31254,0 -4.16693,1.88712 -4.16693,4.21056c0,2.32345 1.85439,4.19965 4.17784,4.19965c2.15982,0 3.94877,-1.64714 4.18875,-3.7306z" data-paper-data="{&quot;glyphName&quot;:&quot;C&quot;,&quot;glyphIndex&quot;:8,&quot;firstGlyphOfWord&quot;:true,&quot;word&quot;:2}" style="animation-play-state: paused;"></path><path d="M296.4155,246.83452v8.1266h4.96323v-1.52715h-3.27246v-6.59946z" data-paper-data="{&quot;glyphName&quot;:&quot;L&quot;,&quot;glyphIndex&quot;:9,&quot;word&quot;:2}" style="animation-play-state: paused;"></path><path d="M310.4907,254.96112h1.84348l-4.29783,-8.26841l-4.28692,8.26841h1.74531l0.52359,-1.09082h3.93786zM307.97091,249.81246l1.24353,2.5307h-2.46525z" data-paper-data="{&quot;glyphName&quot;:&quot;A&quot;,&quot;glyphIndex&quot;:10,&quot;word&quot;:2}" style="animation-play-state: paused;"></path><path d="M317.85737,253.55397l1.3308,1.40716h2.24709l-1.75622,-1.87621c1.13445,-0.52359 1.83258,-1.5926 1.83258,-3.05429c0,-1.76713 -1.4617,-3.1961 -3.37063,-3.1961h-2.82522v8.1266h1.69077v-1.40716zM317.00653,252.02682v-3.66515h1.02537c1.17808,0 1.77804,0.80721 1.77804,1.79985c0,1.13445 -0.67631,1.8653 -1.87621,1.8653z" data-paper-data="{&quot;glyphName&quot;:&quot;R&quot;,&quot;glyphIndex&quot;:11,&quot;word&quot;:2}" style="animation-play-state: paused;"></path><path d="M330.69995,254.96112h1.84348l-4.29783,-8.26841l-4.28692,8.26841h1.74531l0.52359,-1.09082h3.93786zM328.18016,249.81246l1.24353,2.5307h-2.46525z" data-paper-data="{&quot;glyphName&quot;:&quot;A&quot;,&quot;glyphIndex&quot;:12,&quot;word&quot;:2}" style="animation-play-state: paused;"></path><path d="M337.3794,251.36142c0.78539,0.08727 1.22172,0.49087 1.22172,1.14536c0,0.52359 -0.43633,0.97083 -0.99265,0.97083c-0.47996,0 -0.86175,-0.11999 -1.23263,-0.58904l-1.39625,1.02537c0.77448,0.85084 1.70168,1.18899 2.62887,1.18899c1.42897,0 2.74886,-1.13445 2.74886,-2.71614c0,-1.57078 -1.14536,-2.50888 -2.5307,-2.59615c-0.86175,-0.05454 -1.13445,-0.39269 -1.13445,-0.76357c0,-0.44724 0.30543,-0.71994 0.75267,-0.71994c0.28361,0 0.64358,0.17453 0.86175,0.4036l1.3308,-0.97083c-0.62177,-0.74176 -1.38534,-1.04719 -2.19255,-1.04719c-1.12354,0 -2.38889,0.97083 -2.38889,2.34526c0,1.27626 0.91629,2.15982 2.32345,2.32345z" data-paper-data="{&quot;glyphName&quot;:&quot;S&quot;,&quot;glyphIndex&quot;:13,&quot;word&quot;:2}" style="animation-play-state: paused;"></path><path d="M344.11339,256.73916l1.51624,-2.47616h-1.74531l-0.73085,2.47616z" data-paper-data="{&quot;glyphName&quot;:&quot;,&quot;,&quot;glyphIndex&quot;:14,&quot;lastGlyphOfWord&quot;:true,&quot;word&quot;:2}" style="animation-play-state: paused;"></path><path d="M357.93044,251.36142c0.78539,0.08727 1.22172,0.49087 1.22172,1.14536c0,0.52359 -0.43633,0.97083 -0.99265,0.97083c-0.47996,0 -0.86175,-0.11999 -1.23263,-0.58904l-1.39625,1.02537c0.77448,0.85084 1.70168,1.18899 2.62887,1.18899c1.42897,0 2.74886,-1.13445 2.74886,-2.71614c0,-1.57078 -1.14536,-2.50888 -2.5307,-2.59615c-0.86175,-0.05454 -1.13445,-0.39269 -1.13445,-0.76357c0,-0.44724 0.30543,-0.71994 0.75267,-0.71994c0.28361,0 0.64358,0.17453 0.86175,0.4036l1.3308,-0.97083c-0.62177,-0.74176 -1.38534,-1.04719 -2.19255,-1.04719c-1.12354,0 -2.38889,0.97083 -2.38889,2.34526c0,1.27626 0.91629,2.15982 2.32345,2.32345z" data-paper-data="{&quot;glyphName&quot;:&quot;S&quot;,&quot;glyphIndex&quot;:15,&quot;firstGlyphOfWord&quot;:true,&quot;word&quot;:3}" style="animation-play-state: paused;"></path><path d="M369.94399,254.96112h1.84348l-4.29783,-8.26841l-4.28692,8.26841h1.74531l0.52359,-1.09082h3.93786zM367.4242,249.81246l1.24353,2.5307h-2.46525z" data-paper-data="{&quot;glyphName&quot;:&quot;A&quot;,&quot;glyphIndex&quot;:16,&quot;word&quot;:3}" style="animation-play-state: paused;"></path><path d="M374.76905,246.83452v8.1266h4.96323v-1.52715h-3.27246v-6.59946z" data-paper-data="{&quot;glyphName&quot;:&quot;L&quot;,&quot;glyphIndex&quot;:17,&quot;word&quot;:3}" style="animation-play-state: paused;"></path><path d="M386.22629,255.10293c2.17073,0 3.49062,-1.39625 3.49062,-3.76333v-4.50508h-1.69077v4.64689c0,1.22172 -0.54541,1.9962 -1.79985,1.9962c-1.1999,0 -1.82167,-0.71994 -1.82167,-1.9962v-4.64689h-1.69077v4.36328c0,2.258 1.13445,3.90513 3.51244,3.90513z" data-paper-data="{&quot;glyphName&quot;:&quot;U&quot;,&quot;glyphIndex&quot;:18,&quot;word&quot;:3}" style="animation-play-state: paused;"></path><path d="M393.46206,246.83452v8.1266h3.30518c2.33435,0 4.24329,-1.7344 4.24329,-4.06876c0,-2.31254 -1.90893,-4.05785 -4.2542,-4.05785zM395.15283,253.43398v-5.07231h1.6035c1.41807,0 2.51979,1.05809 2.51979,2.5307c0,1.4617 -1.10173,2.54161 -2.50888,2.54161z" data-paper-data="{&quot;glyphName&quot;:&quot;D&quot;,&quot;glyphIndex&quot;:19,&quot;lastGlyphOfWord&quot;:true,&quot;word&quot;:3}" style="animation-play-state: paused;"></path><path d="M413.31134,251.36142c0.78539,0.08727 1.22172,0.49087 1.22172,1.14536c0,0.52359 -0.43633,0.97083 -0.99265,0.97083c-0.47996,0 -0.86175,-0.11999 -1.23263,-0.58904l-1.39625,1.02537c0.77448,0.85084 1.70168,1.18899 2.62887,1.18899c1.42897,0 2.74886,-1.13445 2.74886,-2.71614c0,-1.57078 -1.14536,-2.50888 -2.5307,-2.59615c-0.86175,-0.05454 -1.13445,-0.39269 -1.13445,-0.76357c0,-0.44724 0.30543,-0.71994 0.75267,-0.71994c0.28361,0 0.64358,0.17453 0.86175,0.4036l1.3308,-0.97083c-0.62177,-0.74176 -1.38534,-1.04719 -2.19255,-1.04719c-1.12354,0 -2.38889,0.97083 -2.38889,2.34526c0,1.27626 0.91629,2.15982 2.32345,2.32345z" data-paper-data="{&quot;glyphName&quot;:&quot;S&quot;,&quot;glyphIndex&quot;:20,&quot;firstGlyphOfWord&quot;:true,&quot;word&quot;:4}" style="animation-play-state: paused;"></path><path d="M424.73585,254.96112v-1.52715h-3.34882v-2.02892h3.05429v-1.52715h-3.05429v-1.51624h2.62887v-1.52715h-4.31964v8.1266z" data-paper-data="{&quot;glyphName&quot;:&quot;E&quot;,&quot;glyphIndex&quot;:21,&quot;word&quot;:4}" style="animation-play-state: paused;"></path><path d="M436.26945,250.52149h-4.16693v1.50533h2.20346c-0.35997,0.94901 -1.26535,1.45079 -2.24709,1.45079c-1.36352,0 -2.44344,-1.14536 -2.44344,-2.57433c0,-1.43988 1.07991,-2.59615 2.44344,-2.59615c0.95992,0 1.79985,0.54541 2.22527,1.34171l1.35262,-0.98174c-0.73085,-1.18899 -2.07256,-1.97438 -3.5888,-1.97438c-2.31254,0 -4.16693,1.88712 -4.16693,4.21056c0,2.32345 1.85439,4.19965 4.17784,4.19965c2.33435,0 4.21056,-1.93075 4.21056,-4.33055z" data-paper-data="{&quot;glyphName&quot;:&quot;G&quot;,&quot;glyphIndex&quot;:22,&quot;word&quot;:4}" style="animation-play-state: paused;"></path><path d="M443.16706,255.10293c2.17073,0 3.49062,-1.39625 3.49062,-3.76333v-4.50508h-1.69077v4.64689c0,1.22172 -0.54541,1.9962 -1.79985,1.9962c-1.1999,0 -1.82167,-0.71994 -1.82167,-1.9962v-4.64689h-1.69077v4.36328c0,2.258 1.13445,3.90513 3.51244,3.90513z" data-paper-data="{&quot;glyphName&quot;:&quot;U&quot;,&quot;glyphIndex&quot;:23,&quot;word&quot;:4}" style="animation-play-state: paused;"></path><path d="M452.94444,253.55397l1.3308,1.40716h2.24709l-1.75622,-1.87621c1.13445,-0.52359 1.83258,-1.5926 1.83258,-3.05429c0,-1.76713 -1.4617,-3.1961 -3.37063,-3.1961h-2.82522v8.1266h1.69077v-1.40716zM452.0936,252.02682v-3.66515h1.02537c1.17808,0 1.77804,0.80721 1.77804,1.79985c0,1.13445 -0.67631,1.8653 -1.87621,1.8653z" data-paper-data="{&quot;glyphName&quot;:&quot;R&quot;,&quot;glyphIndex&quot;:24,&quot;word&quot;:4}" style="animation-play-state: paused;"></path><path d="M465.78702,254.96112h1.84348l-4.29783,-8.26841l-4.28692,8.26841h1.74531l0.52359,-1.09082h3.93786zM463.26723,249.81246l1.24353,2.5307h-2.46525z" data-paper-data="{&quot;glyphName&quot;:&quot;A&quot;,&quot;glyphIndex&quot;:25,&quot;word&quot;:4}" style="animation-play-state: paused;"></path><path d="M471.33202,253.43398c-0.50178,0 -0.83993,0.37088 -0.83993,0.83993c0,0.44724 0.33815,0.82902 0.83993,0.82902c0.51269,0 0.83993,-0.38179 0.83993,-0.82902c0,-0.46905 -0.33815,-0.83993 -0.83993,-0.83993z" data-paper-data="{&quot;glyphName&quot;:&quot;.&quot;,&quot;glyphIndex&quot;:26,&quot;lastGlyphOfWord&quot;:true,&quot;word&quot;:4}" style="animation-play-state: paused;"></path><path d="M201.91418,235.70816v-1.12718h283.08582v1.12718z" data-paper-data="{&quot;isContainerTopLineAboveSecondaryText&quot;:true}" style="animation-play-state: paused;"></path><path d="M201.91418,267.40374v-1.12718h283.08582v1.12718z" data-paper-data="{&quot;isContainerBottomLineBelowSecondaryText&quot;:true}" style="animation-play-state: paused;"></path></g><g data-paper-data="{&quot;isPrimaryText&quot;:true}" style="animation-play-state: paused;"><path d="M210.42868,225.71575l4.45824,4.71404h7.52784l-5.88341,-6.28538c3.80046,-1.75406 6.13921,-5.33527 6.13921,-10.23202c0,-5.91995 -4.89675,-10.70708 -11.29176,-10.70708h-9.46462v27.22448h5.66415v-4.71404zM207.57833,220.59974v-12.27842h3.43503c3.94664,0 5.9565,2.70418 5.9565,6.02958c0,3.80046 -2.26566,6.24884 -6.28538,6.24884z" data-paper-data="{&quot;glyphName&quot;:&quot;R&quot;,&quot;glyphIndex&quot;:0,&quot;firstGlyphOfWord&quot;:true,&quot;word&quot;:1}" fill-rule="nonzero" style="animation-play-state: paused;"></path><path d="M245.83877,230.42979h6.17575l-14.39791,-27.69954l-14.36137,27.69954h5.84687l1.75406,-3.65429h13.192zM237.39736,213.18153l4.16589,8.47796h-8.2587z" data-paper-data="{&quot;glyphName&quot;:&quot;A&quot;,&quot;glyphIndex&quot;:1,&quot;word&quot;:1}" fill-rule="nonzero" style="animation-play-state: paused;"></path><path d="M254.38981,203.20531v27.22448h11.07251c7.82019,0 14.2152,-5.81032 14.2152,-13.63051c0,-7.7471 -6.39501,-13.59397 -14.25174,-13.59397zM260.05397,225.31378v-16.99246h5.37181c4.75058,0 8.44142,3.54466 8.44142,8.47796c0,4.89675 -3.69084,8.5145 -8.40487,8.5145z" data-paper-data="{&quot;glyphName&quot;:&quot;D&quot;,&quot;glyphIndex&quot;:2,&quot;word&quot;:1}" fill-rule="nonzero" style="animation-play-state: paused;"></path><path d="M289.39794,203.20531h-5.66415v27.22448h5.66415z" data-paper-data="{&quot;glyphName&quot;:&quot;I&quot;,&quot;glyphIndex&quot;:3,&quot;word&quot;:1}" fill-rule="nonzero" style="animation-play-state: paused;"></path><path d="M314.35675,230.42979h6.17575l-14.39791,-27.69954l-14.36137,27.69954h5.84687l1.75406,-3.65429h13.192zM305.91534,213.18153l4.16589,8.47796h-8.2587z" data-paper-data="{&quot;glyphName&quot;:&quot;A&quot;,&quot;glyphIndex&quot;:4,&quot;word&quot;:1}" fill-rule="nonzero" style="animation-play-state: paused;"></path><path d="M342.27555,218.95531l-19.36775,-16.2616v27.73608h5.66415v-15.64037l19.36775,16.11543v-27.69954h-5.66415z" data-paper-data="{&quot;glyphName&quot;:&quot;N&quot;,&quot;glyphIndex&quot;:5,&quot;word&quot;:1}" fill-rule="nonzero" style="animation-play-state: paused;"></path><path d="M363.61662,230.42979v-22.10847h7.16241v-5.11601h-19.55046v5.11601h6.7239v22.10847z" data-paper-data="{&quot;glyphName&quot;:&quot;T&quot;,&quot;glyphIndex&quot;:6,&quot;lastGlyphOfWord&quot;:true,&quot;word&quot;:1}" fill-rule="nonzero" style="animation-play-state: paused;"></path><path d="M401.1666,217.81758l7.25225,-14.87912c0.01238,-0.02552 0.0266,-0.05005 0.04263,-0.0736c0.01584,-0.02355 0.03319,-0.04588 0.05207,-0.067c0.01908,-0.02109 0.03949,-0.04078 0.06121,-0.05905c0.02172,-0.01825 0.04466,-0.03491 0.06882,-0.04997c0.02416,-0.01504 0.04913,-0.02834 0.07491,-0.03989c0.02599,-0.01155 0.05268,-0.02125 0.08009,-0.02908c0.0272,-0.00784 0.05492,-0.01372 0.08314,-0.01766c0.02802,-0.00396 0.05624,-0.00594 0.08466,-0.00594h5.84687c0.09582,0 0.18657,0.02143 0.27224,0.06429c0.01787,0.00893 0.03522,0.01871 0.05207,0.02933c0.01705,0.01064 0.0334,0.02207 0.04903,0.03429c0.01584,0.01222 0.03096,0.02519 0.04537,0.03892c0.01462,0.01372 0.02842,0.02812 0.04142,0.04318c0.01299,0.01506 0.02528,0.03074 0.03685,0.04702c0.01157,0.01628 0.02233,0.03308 0.03228,0.0504c0.00974,0.01734 0.01868,0.03511 0.0268,0.05332c0.00812,0.01821 0.01533,0.03678 0.02162,0.0557c0.00629,0.01894 0.01167,0.03814 0.01614,0.05759c0.00447,0.01945 0.00792,0.03907 0.01035,0.05886c0.00264,0.01977 0.00416,0.03964 0.00457,0.0596c0.00061,0.01994 0.0002,0.03985 -0.00122,0.05975c-0.00142,0.0199 -0.00376,0.03967 -0.007,0.05932c-0.00345,0.01967 -0.00782,0.03913 -0.01309,0.05838c-0.00528,0.01923 -0.01147,0.03816 -0.01858,0.05679c-0.00711,0.01862 -0.01512,0.03685 -0.02406,0.05469l-13.84977,27.69955c-0.02863,0.05708 -0.06527,0.10841 -0.10993,0.15399c-0.04466,0.04558 -0.09521,0.0832 -0.15165,0.11287c-0.03553,0.01859 -0.07248,0.03355 -0.11085,0.04487c-0.03837,0.01133 -0.07745,0.0188 -0.11724,0.02243c-0.03979,0.00363 -0.07958,0.00333 -0.11937,-0.00088c-0.03979,-0.00421 -0.07877,-0.01227 -0.11694,-0.02416c-0.03817,-0.01189 -0.07481,-0.02739 -0.10993,-0.0465c-0.03512,-0.01911 -0.06801,-0.04147 -0.09867,-0.06706c-0.03086,-0.0256 -0.05877,-0.05395 -0.08374,-0.08504c-0.02517,-0.0311 -0.0471,-0.06435 -0.06578,-0.09976l-14.54408,-27.69952c-0.04649,-0.08866 -0.06974,-0.18304 -0.06974,-0.28315c0,-0.01996 0.00102,-0.03985 0.00305,-0.05969c0.00183,-0.01985 0.00467,-0.03957 0.00853,-0.05914c0.00406,-0.01957 0.00893,-0.0389 0.01462,-0.05798c0.00589,-0.01908 0.01259,-0.03784 0.0201,-0.05628c0.00771,-0.01841 0.01624,-0.03642 0.02558,-0.05402c0.00934,-0.0176 0.01959,-0.03469 0.03076,-0.05125c0.01117,-0.01659 0.02304,-0.03259 0.03563,-0.04802c0.01259,-0.01541 0.02599,-0.03017 0.0402,-0.04428c0.01401,-0.01411 0.02873,-0.02749 0.04416,-0.04014c0.01543,-0.01267 0.03147,-0.02453 0.04811,-0.0356c0.01665,-0.01108 0.0337,-0.02133 0.05116,-0.03073c0.01766,-0.00942 0.03573,-0.01795 0.05421,-0.02558c0.01827,-0.00763 0.03695,-0.01434 0.05603,-0.02013c0.01908,-0.00579 0.03847,-0.01063 0.05816,-0.01453c0.01949,-0.00388 0.03918,-0.0068 0.05908,-0.00877c0.0199,-0.00195 0.03979,-0.00292 0.05969,-0.00292h6.50464c0.02781,0 0.05552,0.0019 0.08314,0.00569c0.02741,0.00378 0.05451,0.00942 0.08131,0.01693c0.0268,0.00749 0.05289,0.01678 0.07826,0.02786c0.02558,0.01108 0.05025,0.02385 0.074,0.03831c0.02375,0.01443 0.04639,0.03043 0.06791,0.04799c0.02152,0.01754 0.04172,0.03648 0.0606,0.05682c0.01908,0.02032 0.03664,0.04184 0.05268,0.06456c0.01604,0.02272 0.03035,0.04642 0.04294,0.07111zM392.55344,203.81436l8.08847,15.63998c0.03005,0.0582 0.06852,0.1102 0.11541,0.15598c0.0469,0.04578 0.09978,0.08302 0.15866,0.11173c0.03593,0.01752 0.07319,0.03137 0.11176,0.04154c0.03878,0.01017 0.07806,0.01647 0.11785,0.01891c0.03999,0.00244 0.07979,0.00095 0.11937,-0.00445c0.03959,-0.0054 0.07836,-0.01462 0.11633,-0.02765c0.03776,-0.01303 0.0739,-0.02963 0.10841,-0.04979c0.03451,-0.02016 0.06679,-0.04349 0.09684,-0.06998c0.02984,-0.02651 0.05684,-0.05569 0.081,-0.08752c0.02416,-0.03185 0.04507,-0.06575 0.06273,-0.10168l7.61676,-15.62706h4.48077l-12.87773,25.75512l-13.52301,-25.75512z" data-paper-data="{&quot;glyphName&quot;:&quot;V&quot;,&quot;glyphIndex&quot;:7,&quot;firstGlyphOfWord&quot;:true,&quot;fontStyleEffect&quot;:true,&quot;word&quot;:2}" fill-rule="evenodd" style="animation-play-state: paused;"></path><path d="M416.36024,230.42979v-27.22448c0,-0.01996 0.00102,-0.03985 0.00305,-0.05969c0.00183,-0.01985 0.00467,-0.03957 0.00853,-0.05914c0.00406,-0.01957 0.00893,-0.0389 0.01462,-0.05798c0.00589,-0.01908 0.01259,-0.03784 0.0201,-0.05628c0.00771,-0.01841 0.01624,-0.03642 0.02558,-0.05402c0.00934,-0.0176 0.01959,-0.03469 0.03076,-0.05125c0.01117,-0.01659 0.02304,-0.03259 0.03563,-0.04802c0.01259,-0.01541 0.02599,-0.03017 0.0402,-0.04428c0.01401,-0.01411 0.02873,-0.02749 0.04416,-0.04014c0.01543,-0.01267 0.03147,-0.02453 0.04811,-0.0356c0.01665,-0.01108 0.0337,-0.02133 0.05116,-0.03073c0.01766,-0.00942 0.03573,-0.01795 0.05421,-0.02558c0.01827,-0.00763 0.03695,-0.01434 0.05603,-0.02013c0.01908,-0.00579 0.03847,-0.01063 0.05816,-0.01453c0.01949,-0.00388 0.03918,-0.0068 0.05908,-0.00877c0.0199,-0.00195 0.03979,-0.00292 0.05969,-0.00292h5.66415c0.0199,0 0.03979,0.00097 0.05969,0.00292c0.0199,0.00197 0.03959,0.00489 0.05908,0.00877c0.01969,0.0039 0.03908,0.00874 0.05816,0.01453c0.01908,0.00579 0.03776,0.0125 0.05603,0.02013c0.01847,0.00763 0.03654,0.01616 0.05421,0.02558c0.01746,0.0094 0.03451,0.01964 0.05116,0.03073c0.01665,0.01106 0.03269,0.02293 0.04811,0.0356c0.01543,0.01265 0.03015,0.02603 0.04416,0.04014c0.01421,0.01411 0.02761,0.02887 0.0402,0.04428c0.01259,0.01543 0.02446,0.03144 0.03563,0.04802c0.01117,0.01657 0.02142,0.03365 0.03076,0.05125c0.00934,0.0176 0.01787,0.03561 0.02558,0.05402c0.00751,0.01843 0.01421,0.03719 0.0201,0.05628c0.00568,0.01908 0.01056,0.03841 0.01462,0.05798c0.00386,0.01957 0.0067,0.03928 0.00853,0.05914c0.00203,0.01983 0.00305,0.03973 0.00305,0.05969v27.22448c0,0.01995 -0.00102,0.03985 -0.00305,0.0597c-0.00183,0.01985 -0.00467,0.03956 -0.00853,0.05912c-0.00406,0.01956 -0.00893,0.03889 -0.01462,0.05798c-0.00589,0.01909 -0.01259,0.03785 -0.0201,0.05628c-0.00771,0.01843 -0.01624,0.03644 -0.02558,0.05403c-0.00934,0.01759 -0.01959,0.03468 -0.03076,0.05127c-0.01117,0.01659 -0.02304,0.03259 -0.03563,0.04801c-0.01259,0.01542 -0.02599,0.03018 -0.0402,0.04428c-0.01401,0.01411 -0.02873,0.02749 -0.04416,0.04014c-0.01543,0.01265 -0.03147,0.02452 -0.04811,0.0356c-0.01665,0.01108 -0.0337,0.02132 -0.05116,0.03073c-0.01766,0.0094 -0.03573,0.01792 -0.05421,0.02556c-0.01827,0.00763 -0.03695,0.01435 -0.05603,0.02014c-0.01908,0.00579 -0.03847,0.01063 -0.05816,0.01452c-0.01949,0.00389 -0.03918,0.00682 -0.05908,0.00877c-0.0199,0.00196 -0.03979,0.00293 -0.05969,0.00293h-5.66415c-0.0199,0 -0.03979,-0.00098 -0.05969,-0.00293c-0.0199,-0.00196 -0.03959,-0.00488 -0.05908,-0.00877c-0.01969,-0.00389 -0.03908,-0.00873 -0.05816,-0.01452c-0.01908,-0.00579 -0.03776,-0.0125 -0.05603,-0.02014c-0.01847,-0.00763 -0.03654,-0.01615 -0.05421,-0.02556c-0.01746,-0.0094 -0.03451,-0.01964 -0.05116,-0.03073c-0.01665,-0.01108 -0.03269,-0.02295 -0.04811,-0.0356c-0.01543,-0.01265 -0.03015,-0.02603 -0.04416,-0.04014c-0.01421,-0.0141 -0.02761,-0.02886 -0.0402,-0.04428c-0.01259,-0.01542 -0.02446,-0.03142 -0.03563,-0.04801c-0.01117,-0.01658 -0.02142,-0.03367 -0.03076,-0.05127c-0.00934,-0.01759 -0.01787,-0.0356 -0.02558,-0.05403c-0.00751,-0.01843 -0.01421,-0.03719 -0.0201,-0.05628c-0.00568,-0.01909 -0.01056,-0.03841 -0.01462,-0.05798c-0.00386,-0.01956 -0.0067,-0.03927 -0.00853,-0.05912c-0.00203,-0.01985 -0.00305,-0.03975 -0.00305,-0.0597zM422.02439,203.81436h-4.44606v26.00638h4.44606z" data-paper-data="{&quot;glyphName&quot;:&quot;I&quot;,&quot;glyphIndex&quot;:8,&quot;fontStyleEffect&quot;:true,&quot;word&quot;:2}" fill-rule="evenodd" style="animation-play-state: paused;"></path><path d="M444.70537,231.03884c0.0199,0 0.03979,-0.00098 0.05969,-0.00293c0.0199,-0.00196 0.03959,-0.00488 0.05908,-0.00877c0.01969,-0.00389 0.03908,-0.00873 0.05816,-0.01452c0.01908,-0.00579 0.03776,-0.0125 0.05603,-0.02014c0.01847,-0.00763 0.03654,-0.01615 0.05421,-0.02556c0.01746,-0.0094 0.03451,-0.01964 0.05116,-0.03073c0.01665,-0.01108 0.03269,-0.02295 0.04811,-0.0356c0.01543,-0.01265 0.03015,-0.02603 0.04416,-0.04014c0.01421,-0.0141 0.02761,-0.02886 0.0402,-0.04428c0.01259,-0.01542 0.02446,-0.03142 0.03563,-0.04801c0.01117,-0.01658 0.02142,-0.03367 0.03076,-0.05127c0.00934,-0.01759 0.01787,-0.0356 0.02558,-0.05403c0.00751,-0.01843 0.01421,-0.03719 0.0201,-0.05628c0.00568,-0.01909 0.01056,-0.03841 0.01462,-0.05798c0.00386,-0.01956 0.0067,-0.03927 0.00853,-0.05912c0.00203,-0.01985 0.00305,-0.03975 0.00305,-0.0597v-5.11601c0,-0.01996 -0.00102,-0.03985 -0.00305,-0.05969c-0.00183,-0.01985 -0.00467,-0.03957 -0.00853,-0.05914c-0.00406,-0.01955 -0.00893,-0.03888 -0.01462,-0.05798c-0.00589,-0.01908 -0.01259,-0.03784 -0.0201,-0.05628c-0.00771,-0.01841 -0.01624,-0.03642 -0.02558,-0.05402c-0.00934,-0.01758 -0.01959,-0.03467 -0.03076,-0.05125c-0.01117,-0.01659 -0.02304,-0.03259 -0.03563,-0.04802c-0.01259,-0.01541 -0.02599,-0.03017 -0.0402,-0.04428c-0.01401,-0.01411 -0.02873,-0.02749 -0.04416,-0.04014c-0.01543,-0.01267 -0.03147,-0.02453 -0.04811,-0.0356c-0.01665,-0.01108 -0.0337,-0.02133 -0.05116,-0.03073c-0.01766,-0.00942 -0.03573,-0.01795 -0.05421,-0.02558c-0.01827,-0.00763 -0.03695,-0.01434 -0.05603,-0.02013c-0.01908,-0.00579 -0.03847,-0.01063 -0.05816,-0.01453c-0.01949,-0.00388 -0.03918,-0.0068 -0.05908,-0.00877c-0.0199,-0.00195 -0.03979,-0.00292 -0.05969,-0.00292h-10.60963v-5.57889h9.62297c0.0199,0 0.03979,-0.00097 0.05969,-0.00292c0.0199,-0.00197 0.03959,-0.00489 0.05908,-0.00877c0.01969,-0.0039 0.03908,-0.00874 0.05816,-0.01453c0.01908,-0.00579 0.03776,-0.0125 0.05603,-0.02013c0.01847,-0.00763 0.03654,-0.01616 0.05421,-0.02558c0.01746,-0.0094 0.03451,-0.01964 0.05116,-0.03073c0.01665,-0.01106 0.03269,-0.02293 0.04811,-0.0356c0.01543,-0.01265 0.03015,-0.02603 0.04416,-0.04014c0.01421,-0.01411 0.02761,-0.02887 0.0402,-0.04428c0.01259,-0.01543 0.02446,-0.03144 0.03563,-0.04802c0.01117,-0.01659 0.02142,-0.03367 0.03076,-0.05125c0.00934,-0.0176 0.01787,-0.03561 0.02558,-0.05402c0.00751,-0.01843 0.01421,-0.03719 0.0201,-0.05628c0.00568,-0.0191 0.01056,-0.03843 0.01462,-0.05798c0.00386,-0.01957 0.0067,-0.03928 0.00853,-0.05914c0.00203,-0.01983 0.00305,-0.03973 0.00305,-0.05969v-5.11601c0,-0.01996 -0.00102,-0.03985 -0.00305,-0.05969c-0.00183,-0.01985 -0.00467,-0.03957 -0.00853,-0.05914c-0.00406,-0.01955 -0.00893,-0.03888 -0.01462,-0.05798c-0.00589,-0.01908 -0.01259,-0.03784 -0.0201,-0.05628c-0.00771,-0.01841 -0.01624,-0.03642 -0.02558,-0.05402c-0.00934,-0.01758 -0.01959,-0.03467 -0.03076,-0.05125c-0.01117,-0.01659 -0.02304,-0.03259 -0.03563,-0.04802c-0.01259,-0.01541 -0.02599,-0.03017 -0.0402,-0.04428c-0.01401,-0.01411 -0.02873,-0.02749 -0.04416,-0.04014c-0.01543,-0.01267 -0.03147,-0.02453 -0.04811,-0.0356c-0.01665,-0.01108 -0.0337,-0.02133 -0.05116,-0.03073c-0.01766,-0.00942 -0.03573,-0.01795 -0.05421,-0.02558c-0.01827,-0.00763 -0.03695,-0.01434 -0.05603,-0.02013c-0.01908,-0.00579 -0.03847,-0.01063 -0.05816,-0.01453c-0.01949,-0.00388 -0.03918,-0.0068 -0.05908,-0.00877c-0.0199,-0.00195 -0.03979,-0.00292 -0.05969,-0.00292h-9.62297v-3.86137h8.1978c0.0199,0 0.03979,-0.00097 0.05969,-0.00292c0.0199,-0.00197 0.03959,-0.00489 0.05908,-0.00877c0.01969,-0.0039 0.03908,-0.00874 0.05816,-0.01453c0.01908,-0.00579 0.03776,-0.0125 0.05603,-0.02013c0.01847,-0.00763 0.03654,-0.01616 0.05421,-0.02558c0.01746,-0.0094 0.03451,-0.01964 0.05116,-0.03073c0.01665,-0.01106 0.03269,-0.02293 0.04811,-0.0356c0.01543,-0.01265 0.03015,-0.02603 0.04416,-0.04014c0.01421,-0.01411 0.02761,-0.02887 0.0402,-0.04428c0.01259,-0.01543 0.02446,-0.03144 0.03563,-0.04802c0.01117,-0.01657 0.02142,-0.03365 0.03076,-0.05125c0.00934,-0.0176 0.01787,-0.03561 0.02558,-0.05402c0.00751,-0.01843 0.01421,-0.03719 0.0201,-0.05628c0.00568,-0.01908 0.01056,-0.03841 0.01462,-0.05798c0.00386,-0.01957 0.0067,-0.03928 0.00853,-0.05914c0.00203,-0.01983 0.00305,-0.03973 0.00305,-0.05969v-5.11601c0,-0.01996 -0.00102,-0.03985 -0.00305,-0.05969c-0.00183,-0.01985 -0.00467,-0.03957 -0.00853,-0.05914c-0.00406,-0.01957 -0.00893,-0.0389 -0.01462,-0.05798c-0.00589,-0.01908 -0.01259,-0.03784 -0.0201,-0.05628c-0.00771,-0.01841 -0.01624,-0.03642 -0.02558,-0.05402c-0.00934,-0.0176 -0.01959,-0.03469 -0.03076,-0.05125c-0.01117,-0.01659 -0.02304,-0.03259 -0.03563,-0.04802c-0.01259,-0.01541 -0.02599,-0.03017 -0.0402,-0.04428c-0.01401,-0.01411 -0.02873,-0.02749 -0.04416,-0.04014c-0.01543,-0.01267 -0.03147,-0.02453 -0.04811,-0.0356c-0.01665,-0.01108 -0.0337,-0.02133 -0.05116,-0.03073c-0.01766,-0.00942 -0.03573,-0.01795 -0.05421,-0.02558c-0.01827,-0.00763 -0.03695,-0.01434 -0.05603,-0.02013c-0.01908,-0.00579 -0.03847,-0.01063 -0.05816,-0.01453c-0.01949,-0.00388 -0.03918,-0.0068 -0.05908,-0.00877c-0.0199,-0.00195 -0.03979,-0.00292 -0.05969,-0.00292h-14.471c-0.0199,0 -0.03979,0.00097 -0.05969,0.00292c-0.0199,0.00197 -0.03959,0.00489 -0.05908,0.00877c-0.01969,0.0039 -0.03908,0.00874 -0.05816,0.01453c-0.01908,0.00579 -0.03776,0.0125 -0.05603,0.02013c-0.01847,0.00763 -0.03654,0.01616 -0.05421,0.02558c-0.01746,0.0094 -0.03451,0.01964 -0.05116,0.03073c-0.01665,0.01106 -0.03269,0.02293 -0.04811,0.0356c-0.01543,0.01265 -0.03015,0.02603 -0.04416,0.04014c-0.01421,0.01411 -0.02761,0.02887 -0.0402,0.04428c-0.01259,0.01543 -0.02446,0.03144 -0.03563,0.04802c-0.01117,0.01657 -0.02142,0.03365 -0.03076,0.05125c-0.00934,0.0176 -0.01787,0.03561 -0.02558,0.05402c-0.00751,0.01843 -0.01421,0.03719 -0.0201,0.05628c-0.00568,0.01908 -0.01056,0.03841 -0.01462,0.05798c-0.00386,0.01957 -0.0067,0.03928 -0.00853,0.05914c-0.00203,0.01983 -0.00305,0.03973 -0.00305,0.05969v27.22448c0,0.01995 0.00102,0.03985 0.00305,0.0597c0.00183,0.01985 0.00467,0.03956 0.00853,0.05912c0.00406,0.01956 0.00893,0.03889 0.01462,0.05798c0.00589,0.01909 0.01259,0.03785 0.0201,0.05628c0.00771,0.01843 0.01624,0.03644 0.02558,0.05403c0.00934,0.01759 0.01959,0.03468 0.03076,0.05127c0.01117,0.01659 0.02304,0.03259 0.03563,0.04801c0.01259,0.01542 0.02599,0.03018 0.0402,0.04428c0.01401,0.01411 0.02873,0.02749 0.04416,0.04014c0.01543,0.01265 0.03147,0.02452 0.04811,0.0356c0.01665,0.01108 0.0337,0.02132 0.05116,0.03073c0.01766,0.0094 0.03573,0.01792 0.05421,0.02556c0.01827,0.00763 0.03695,0.01435 0.05603,0.02014c0.01908,0.00579 0.03847,0.01063 0.05816,0.01452c0.01949,0.00389 0.03918,0.00682 0.05908,0.00877c0.0199,0.00196 0.03979,0.00293 0.05969,0.00293zM444.09632,229.82074v-3.89791h-10.60963c-0.0199,0 -0.03979,-0.00097 -0.05969,-0.00292c-0.0199,-0.00197 -0.03959,-0.00489 -0.05908,-0.00877c-0.01969,-0.0039 -0.03908,-0.00874 -0.05816,-0.01453c-0.01908,-0.00579 -0.03776,-0.0125 -0.05603,-0.02013c-0.01847,-0.00763 -0.03654,-0.01616 -0.05421,-0.02558c-0.01746,-0.0094 -0.03451,-0.01964 -0.05116,-0.03073c-0.01665,-0.01106 -0.03269,-0.02293 -0.04811,-0.0356c-0.01543,-0.01265 -0.03015,-0.02603 -0.04416,-0.04014c-0.01421,-0.01411 -0.02761,-0.02887 -0.0402,-0.04428c-0.01259,-0.01543 -0.02446,-0.03144 -0.03563,-0.04802c-0.01117,-0.01659 -0.02142,-0.03367 -0.03076,-0.05125c-0.00934,-0.0176 -0.01787,-0.03561 -0.02558,-0.05402c-0.00751,-0.01843 -0.01421,-0.03719 -0.0201,-0.05628c-0.00568,-0.0191 -0.01056,-0.03843 -0.01462,-0.05798c-0.00386,-0.01957 -0.0067,-0.03928 -0.00853,-0.05914c-0.00203,-0.01983 -0.00305,-0.03973 -0.00305,-0.05969v-6.79698c0,-0.01996 0.00102,-0.03985 0.00305,-0.05969c0.00183,-0.01985 0.00467,-0.03957 0.00853,-0.05914c0.00406,-0.01955 0.00893,-0.03888 0.01462,-0.05798c0.00589,-0.01908 0.01259,-0.03784 0.0201,-0.05628c0.00771,-0.01841 0.01624,-0.03642 0.02558,-0.05402c0.00934,-0.01758 0.01959,-0.03467 0.03076,-0.05125c0.01117,-0.01659 0.02304,-0.03259 0.03563,-0.04802c0.01259,-0.01541 0.02599,-0.03017 0.0402,-0.04428c0.01401,-0.01411 0.02873,-0.02749 0.04416,-0.04014c0.01543,-0.01267 0.03147,-0.02453 0.04811,-0.0356c0.01665,-0.01108 0.0337,-0.02133 0.05116,-0.03073c0.01766,-0.00942 0.03573,-0.01795 0.05421,-0.02558c0.01827,-0.00763 0.03695,-0.01434 0.05603,-0.02013c0.01908,-0.00579 0.03847,-0.01063 0.05816,-0.01453c0.01949,-0.00388 0.03918,-0.0068 0.05908,-0.00877c0.0199,-0.00195 0.03979,-0.00292 0.05969,-0.00292h9.62297v-3.89791h-9.62297c-0.0199,0 -0.03979,-0.00097 -0.05969,-0.00292c-0.0199,-0.00197 -0.03959,-0.00489 -0.05908,-0.00877c-0.01969,-0.0039 -0.03908,-0.00874 -0.05816,-0.01453c-0.01908,-0.00579 -0.03776,-0.0125 -0.05603,-0.02013c-0.01847,-0.00763 -0.03654,-0.01616 -0.05421,-0.02558c-0.01746,-0.0094 -0.03451,-0.01964 -0.05116,-0.03073c-0.01665,-0.01106 -0.03269,-0.02293 -0.04811,-0.0356c-0.01543,-0.01265 -0.03015,-0.02603 -0.04416,-0.04014c-0.01421,-0.01411 -0.02761,-0.02887 -0.0402,-0.04428c-0.01259,-0.01543 -0.02446,-0.03144 -0.03563,-0.04802c-0.01117,-0.01659 -0.02142,-0.03367 -0.03076,-0.05125c-0.00934,-0.0176 -0.01787,-0.03561 -0.02558,-0.05402c-0.00751,-0.01843 -0.01421,-0.03719 -0.0201,-0.05628c-0.00568,-0.0191 -0.01056,-0.03843 -0.01462,-0.05798c-0.00386,-0.01957 -0.0067,-0.03928 -0.00853,-0.05914c-0.00203,-0.01983 -0.00305,-0.03973 -0.00305,-0.05969v-5.07947c0,-0.01994 0.00102,-0.03983 0.00305,-0.05969c0.00183,-0.01985 0.00467,-0.03957 0.00853,-0.05914c0.00406,-0.01955 0.00893,-0.03888 0.01462,-0.05798c0.00589,-0.01908 0.01259,-0.03784 0.0201,-0.05628c0.00771,-0.01841 0.01624,-0.03642 0.02558,-0.05402c0.00934,-0.01758 0.01959,-0.03467 0.03076,-0.05125c0.01117,-0.01659 0.02304,-0.03259 0.03563,-0.04802c0.01259,-0.01541 0.02599,-0.03017 0.0402,-0.04428c0.01401,-0.01411 0.02873,-0.02749 0.04416,-0.04014c0.01543,-0.01267 0.03147,-0.02453 0.04811,-0.0356c0.01665,-0.01108 0.0337,-0.02133 0.05116,-0.03073c0.01766,-0.00942 0.03573,-0.01795 0.05421,-0.02558c0.01827,-0.00763 0.03695,-0.01434 0.05603,-0.02013c0.01908,-0.00579 0.03847,-0.01063 0.05816,-0.01453c0.01949,-0.00388 0.03918,-0.0068 0.05908,-0.00877c0.0199,-0.00195 0.03979,-0.00292 0.05969,-0.00292h8.1978v-3.89791h-13.2529v26.00638z" data-paper-data="{&quot;glyphName&quot;:&quot;E&quot;,&quot;glyphIndex&quot;:9,&quot;fontStyleEffect&quot;:true,&quot;word&quot;:2}" fill-rule="evenodd" style="animation-play-state: paused;"></path><path d="M470.74311,217.81508l7.21662,-14.87559c0.01238,-0.0256 0.02649,-0.05021 0.04233,-0.07382c0.01584,-0.02361 0.03329,-0.046 0.05238,-0.06718c0.01888,-0.02117 0.03918,-0.04092 0.0609,-0.05923c0.02193,-0.01831 0.04487,-0.03502 0.06882,-0.05012c0.02416,-0.0151 0.04923,-0.02844 0.07522,-0.04001c0.02599,-0.01159 0.05268,-0.02132 0.08009,-0.02917c0.0272,-0.00786 0.05492,-0.01377 0.08314,-0.01775c0.02822,-0.00396 0.05654,-0.00594 0.08496,-0.00594h5.88341c0.09582,0 0.18657,0.02143 0.27224,0.06429c0.01787,0.00893 0.03522,0.01871 0.05207,0.02933c0.01705,0.01064 0.0334,0.02207 0.04903,0.03429c0.01584,0.01222 0.03096,0.02519 0.04537,0.03892c0.01462,0.01372 0.02842,0.02812 0.04142,0.04318c0.01299,0.01506 0.02528,0.03074 0.03685,0.04702c0.01157,0.01628 0.02233,0.03308 0.03228,0.0504c0.00974,0.01734 0.01868,0.03511 0.0268,0.05332c0.00812,0.01821 0.01533,0.03678 0.02162,0.0557c0.00629,0.01894 0.01167,0.03814 0.01614,0.05759c0.00447,0.01945 0.00792,0.03907 0.01035,0.05886c0.00264,0.01977 0.00416,0.03964 0.00457,0.0596c0.00061,0.01994 0.0002,0.03985 -0.00122,0.05975c-0.00142,0.0199 -0.00386,0.03967 -0.00731,0.05932c-0.00325,0.01967 -0.00751,0.03913 -0.01279,0.05838c-0.00528,0.01923 -0.01147,0.03816 -0.01858,0.05679c-0.00711,0.01862 -0.01512,0.03685 -0.02406,0.05469l-13.84977,27.69955c-0.02842,0.05666 -0.06476,0.10765 -0.10902,0.15299c-0.04426,0.04534 -0.0943,0.08286 -0.15013,0.11256c-0.01766,0.00935 -0.03573,0.01782 -0.05421,0.02541c-0.01847,0.00758 -0.03725,0.01424 -0.05634,0.01998c-0.01908,0.00574 -0.03837,0.01052 -0.05786,0.01436c-0.01969,0.00384 -0.03939,0.00671 -0.05908,0.00861c-0.0199,0.0019 -0.03989,0.00282 -0.05999,0.00277c-0.0199,-0.00005 -0.03979,-0.00109 -0.05969,-0.0031c-0.01969,-0.00201 -0.03939,-0.00499 -0.05908,-0.00893c-0.01949,-0.00395 -0.03878,-0.00884 -0.05786,-0.01468c-0.01908,-0.00584 -0.03776,-0.01261 -0.05603,-0.02029c-0.01847,-0.00769 -0.03654,-0.01625 -0.05421,-0.0257c-0.01746,-0.00945 -0.03451,-0.01974 -0.05116,-0.03087c-0.01644,-0.01113 -0.03238,-0.02304 -0.04781,-0.03574c-0.01543,-0.0127 -0.03015,-0.02612 -0.04416,-0.04026c-0.01401,-0.01414 -0.02741,-0.02894 -0.0402,-0.0444c-0.01259,-0.01546 -0.02436,-0.03149 -0.03532,-0.04811c-0.01096,-0.01662 -0.02111,-0.03373 -0.03045,-0.05135l-5.40165,-10.17324l-5.06302,10.1593c-0.02842,0.05724 -0.06507,0.10872 -0.10993,0.15442c-0.04466,0.0457 -0.09532,0.08342 -0.15196,0.11315c-0.03553,0.01859 -0.07248,0.03355 -0.11085,0.04487c-0.03837,0.01133 -0.07745,0.0188 -0.11724,0.02243c-0.03979,0.00363 -0.07958,0.00333 -0.11937,-0.00088c-0.03979,-0.00421 -0.07877,-0.01227 -0.11694,-0.02416c-0.03817,-0.01189 -0.07481,-0.02739 -0.10993,-0.0465c-0.03512,-0.01911 -0.06801,-0.04147 -0.09867,-0.06706c-0.03086,-0.0256 -0.05877,-0.05395 -0.08374,-0.08504c-0.02517,-0.0311 -0.0471,-0.06435 -0.06578,-0.09976l-14.54408,-27.69952c-0.04649,-0.08866 -0.06974,-0.18304 -0.06974,-0.28315c0,-0.01996 0.00102,-0.03985 0.00305,-0.05969c0.00183,-0.01985 0.00467,-0.03957 0.00853,-0.05914c0.00406,-0.01957 0.00893,-0.0389 0.01462,-0.05798c0.00589,-0.01908 0.01259,-0.03784 0.0201,-0.05628c0.00771,-0.01841 0.01624,-0.03642 0.02558,-0.05402c0.00934,-0.0176 0.01959,-0.03469 0.03076,-0.05125c0.01117,-0.01659 0.02304,-0.03259 0.03563,-0.04802c0.01259,-0.01541 0.02599,-0.03017 0.0402,-0.04428c0.01401,-0.01411 0.02873,-0.02749 0.04416,-0.04014c0.01543,-0.01267 0.03147,-0.02453 0.04811,-0.0356c0.01665,-0.01108 0.0337,-0.02133 0.05116,-0.03073c0.01766,-0.00942 0.03573,-0.01795 0.05421,-0.02558c0.01827,-0.00763 0.03695,-0.01434 0.05603,-0.02013c0.01908,-0.00579 0.03847,-0.01063 0.05816,-0.01453c0.01949,-0.00388 0.03918,-0.0068 0.05908,-0.00877c0.0199,-0.00195 0.03979,-0.00292 0.05969,-0.00292h6.50464c0.02781,0 0.05552,0.0019 0.08314,0.00569c0.02741,0.00378 0.05451,0.00942 0.08131,0.01693c0.0268,0.00749 0.05289,0.01678 0.07826,0.02786c0.02558,0.01108 0.05025,0.02385 0.074,0.03831c0.02375,0.01443 0.04639,0.03043 0.06791,0.04799c0.02152,0.01754 0.04172,0.03648 0.0606,0.05682c0.01908,0.02032 0.03664,0.04184 0.05268,0.06456c0.01604,0.02272 0.03035,0.04642 0.04294,0.07111l7.71847,14.92456l1.87069,-3.60758l-5.6267,-10.75489c-0.04629,-0.08841 -0.06943,-0.18252 -0.06943,-0.28232c0,-0.01996 0.00102,-0.03985 0.00305,-0.05969c0.00183,-0.01985 0.00467,-0.03957 0.00853,-0.05914c0.00406,-0.01957 0.00893,-0.0389 0.01462,-0.05798c0.00589,-0.01908 0.01259,-0.03784 0.0201,-0.05628c0.00771,-0.01841 0.01624,-0.03642 0.02558,-0.05402c0.00934,-0.0176 0.01959,-0.03469 0.03076,-0.05125c0.01117,-0.01659 0.02304,-0.03259 0.03563,-0.04802c0.01259,-0.01541 0.02599,-0.03017 0.0402,-0.04428c0.01401,-0.01411 0.02873,-0.02749 0.04416,-0.04014c0.01543,-0.01267 0.03147,-0.02453 0.04811,-0.0356c0.01665,-0.01108 0.0337,-0.02133 0.05116,-0.03073c0.01766,-0.00942 0.03573,-0.01795 0.05421,-0.02558c0.01827,-0.00763 0.03695,-0.01434 0.05603,-0.02013c0.01908,-0.00579 0.03847,-0.01063 0.05816,-0.01453c0.01949,-0.00388 0.03918,-0.0068 0.05908,-0.00877c0.0199,-0.00195 0.03979,-0.00292 0.05969,-0.00292h6.50464c0.02781,0 0.05552,0.0019 0.08314,0.00569c0.02741,0.00378 0.05451,0.00942 0.08131,0.01693c0.0268,0.00749 0.05289,0.01678 0.07826,0.02786c0.02558,0.01108 0.05025,0.02385 0.074,0.03831c0.02375,0.01443 0.04639,0.03043 0.06791,0.04799c0.02152,0.01754 0.04172,0.03648 0.0606,0.05682c0.01908,0.02032 0.03664,0.04184 0.05268,0.06456c0.01604,0.02272 0.03035,0.04642 0.04294,0.07111zM462.13116,203.81436l8.08817,15.63998c0.03025,0.05839 0.06892,0.11051 0.11602,0.15637c0.0471,0.04586 0.10019,0.08314 0.15927,0.11182c0.01787,0.00871 0.03624,0.01652 0.05512,0.02342c0.01868,0.0069 0.03766,0.01288 0.05695,0.01794c0.01929,0.00503 0.03878,0.00912 0.05847,0.01224c0.01969,0.00311 0.03949,0.00525 0.05938,0.00643c0.0199,0.00118 0.03979,0.00138 0.05969,0.00061c0.0199,-0.00079 0.03979,-0.00255 0.05969,-0.00527c0.01969,-0.00274 0.03928,-0.00644 0.05877,-0.01108c0.01929,-0.00467 0.03837,-0.01026 0.05725,-0.01678c0.01888,-0.00654 0.03735,-0.01399 0.05542,-0.02235c0.01807,-0.00834 0.03573,-0.01756 0.05299,-0.02765c0.01726,-0.01007 0.0339,-0.02097 0.04994,-0.03271c0.01624,-0.01171 0.03177,-0.0242 0.04659,-0.03746c0.01502,-0.01324 0.02923,-0.02718 0.04263,-0.04184c0.0136,-0.01464 0.02649,-0.02991 0.03867,-0.04583c0.01198,-0.0159 0.02314,-0.03235 0.0335,-0.04936c0.01056,-0.01699 0.0201,-0.03446 0.02863,-0.05241l7.58083,-15.62606h4.5164l-12.88047,25.7611l-5.40257,-10.17491c-0.02964,-0.05607 -0.0672,-0.10626 -0.11267,-0.15056c-0.04548,-0.0443 -0.09664,-0.08061 -0.15348,-0.10893c-0.01787,-0.00889 -0.03614,-0.01689 -0.05481,-0.024c-0.01847,-0.00711 -0.03735,-0.01329 -0.05664,-0.01855c-0.01929,-0.00524 -0.03878,-0.00952 -0.05847,-0.01285c-0.01969,-0.00333 -0.03949,-0.00569 -0.05938,-0.0071c-0.0199,-0.00138 -0.03979,-0.00179 -0.05969,-0.00122c-0.0199,0.00057 -0.03979,0.00211 -0.05969,0.00463c-0.01969,0.00254 -0.03928,0.00603 -0.05877,0.01048c-0.01949,0.00445 -0.03867,0.00984 -0.05756,0.01617c-0.01888,0.00633 -0.03746,0.01357 -0.05573,0.02171c-0.01807,0.00816 -0.03583,0.0172 -0.05329,0.0271c-0.01726,0.00989 -0.03401,0.02061 -0.05025,0.03216c-0.01624,0.01155 -0.03187,0.02387 -0.0469,0.03697c-0.01523,0.01309 -0.02964,0.02689 -0.04324,0.04138c-0.0136,0.0145 -0.0266,0.02963 -0.03898,0.0454c-0.01218,0.01577 -0.02355,0.03211 -0.03411,0.049c-0.01056,0.01691 -0.0203,0.03429 -0.02923,0.05213l-5.05998,10.15328l-13.5224,-25.75343h5.12636l8.08847,15.63998c0.02883,0.05591 0.06547,0.10614 0.10993,0.15068c0.04446,0.04452 0.09461,0.08127 0.15044,0.11024c0.01787,0.00918 0.03604,0.01747 0.05451,0.02488c0.01847,0.00741 0.03725,0.01389 0.05634,0.01943c0.01929,0.00554 0.03867,0.01014 0.05816,0.01379c0.01969,0.00365 0.03949,0.00633 0.05938,0.00804c0.0199,0.00171 0.03979,0.00243 0.05969,0.00216c0.0199,-0.00024 0.03979,-0.00146 0.05969,-0.00365c0.0199,-0.00221 0.03959,-0.00539 0.05908,-0.00953c0.01949,-0.00412 0.03867,-0.0092 0.05756,-0.01523c0.01908,-0.00603 0.03776,-0.01298 0.05603,-0.02086c0.01847,-0.00786 0.03644,-0.0166 0.0539,-0.02622c0.01746,-0.00962 0.03441,-0.02008 0.05086,-0.03137c0.01644,-0.01129 0.03228,-0.02336 0.04751,-0.03621c0.01523,-0.01285 0.02984,-0.02641 0.04385,-0.04068c0.01381,-0.01427 0.027,-0.0292 0.03959,-0.0448c0.01238,-0.01557 0.02406,-0.03172 0.03502,-0.04845c0.01076,-0.01671 0.02081,-0.03392 0.03015,-0.05165l2.558,-4.93329c0.02253,-0.04347 0.03959,-0.089 0.05116,-0.13661c0.01137,-0.04759 0.01705,-0.09587 0.01705,-0.14486c0,-0.04897 -0.00589,-0.09722 -0.01766,-0.14477c-0.01177,-0.04757 -0.02903,-0.09304 -0.05177,-0.13643l-5.30725,-10.14459z" data-paper-data="{&quot;glyphName&quot;:&quot;W&quot;,&quot;glyphIndex&quot;:10,&quot;lastGlyphOfWord&quot;:true,&quot;fontStyleEffect&quot;:true,&quot;word&quot;:2}" fill-rule="evenodd" style="animation-play-state: paused;"></path></g><g data-paper-data="{&quot;fillRule&quot;:&quot;nonzero&quot;,&quot;fillRuleOriginal&quot;:&quot;nonzero&quot;,&quot;isIcon&quot;:true,&quot;iconStyle&quot;:&quot;standalone&quot;,&quot;selectedEffects&quot;:{&quot;container&quot;:&quot;&quot;,&quot;transformation&quot;:&quot;&quot;,&quot;pattern&quot;:&quot;&quot;},&quot;bounds&quot;:{&quot;x&quot;:65,&quot;y&quot;:166.08805414541877,&quot;width&quot;:106.91196368044868,&quot;height&quot;:137.8238917091624},&quot;iconType&quot;:&quot;icon&quot;,&quot;rawIconId&quot;:&quot;758dbc46-ade0-45b0-9750-cd4a9fade8db&quot;,&quot;isDetailed&quot;:false,&quot;suitableAsStandaloneIcon&quot;:true}" fill-rule="nonzero" style="animation-play-state: paused;"><path d="M138.24356,255.67358l6.49741,-2.55959l27.17099,50.79795h-38.78758l-26.97411,-50.60106h-6.89119v50.60106h-34.25908v-137.82388h7.08808v130.7358h19.88602v-50.40417l18.31089,-0.19689l27.17099,50.60106h22.64249zM85.4767,173.17614v118.72543h-7.08808v-125.81352h34.84976c22.64249,0 38.78758,7.48187 46.66323,21.46115c3.34715,6.49741 5.11917,13.78239 5.11917,21.85493c0,24.21763 -12.60104,38.59069 -36.228,42.72541l21.46115,39.96893h-8.07255l-24.61141,-45.48188l5.31607,-0.59067c22.24871,-2.36269 35.04664,-15.35752 35.04664,-36.62178c0,-23.43006 -16.14508,-36.228 -44.69432,-36.228zM91.97411,240.11917v-6.89119h19.68913c22.24871,0 32.68395,-7.28498 32.68395,-22.83939c0,-14.96374 -10.23834,-23.43006 -27.76167,-23.43006h-17.52332v6.69431h15.35752c10.23834,0 16.93265,2.36269 20.2798,7.28498c1.77202,2.16581 2.55959,4.92228 2.55959,8.46632c0,11.2228 -9.25389,17.32643 -26.77721,17.32643h-18.70467v-19.29534h7.28498v12.20726h11.41969c13.19172,0 19.68913,-3.34715 19.68913,-10.23834c0,-5.90674 -5.31607,-8.86011 -15.7513,-8.86011h-22.64249v-20.67358h24.8083c21.46115,0 34.84976,11.02591 34.84976,30.51814c0,20.4767 -12.79793,29.73058 -39.77204,29.73058z" data-paper-data="{&quot;isPathIcon&quot;:true}" style="animation-play-state: paused;"></path></g></g></g><g fill="#ffffff" fill-rule="none" stroke="none" stroke-width="1" stroke-linecap="butt" stroke-linejoin="miter" stroke-miterlimit="10" stroke-dasharray="" stroke-dashoffset="0" font-family="none" font-weight="none" font-size="none" text-anchor="none" style="mix-blend-mode: normal; animation-play-state: paused;" opacity="0"><g data-paper-data="{&quot;isGlobalGroup&quot;:true,&quot;bounds&quot;:{&quot;x&quot;:65,&quot;y&quot;:166.08805414541877,&quot;width&quot;:420,&quot;height&quot;:137.8238917091624}}" style="animation-play-state: paused;"><g data-paper-data="{&quot;textHeightFactor&quot;:0.3845131272848122,&quot;isSecondaryText&quot;:true}" fill-rule="nonzero" style="animation-play-state: paused;"><path d="M203.60495,246.83452h-1.69077v8.1266h1.69077z" data-paper-data="{&quot;glyphName&quot;:&quot;I&quot;,&quot;glyphIndex&quot;:0,&quot;firstGlyphOfWord&quot;:true,&quot;word&quot;:1}" style="animation-play-state: paused;"></path><path d="M211.757,249.97608l-4.33055,-3.28337v8.26841h1.69077v-4.89778l2.63978,1.90893l2.63978,-1.90893v4.89778h1.69077v-8.26841z" data-paper-data="{&quot;glyphName&quot;:&quot;M&quot;,&quot;glyphIndex&quot;:1,&quot;word&quot;:1}" style="animation-play-state: paused;"></path><path d="M224.2178,244.11838l-1.29808,2.02892h1.4617l0.85084,-1.29808zM225.81039,254.96112h1.84348l-4.29783,-8.26841l-4.28692,8.26841h1.74531l0.52359,-1.09082h3.93786zM223.2906,249.81246l1.24353,2.5307h-2.46525z" data-paper-data="{&quot;glyphName&quot;:&quot;Á&quot;,&quot;glyphIndex&quot;:2,&quot;word&quot;:1}" style="animation-play-state: paused;"></path><path d="M238.03121,250.52149h-4.16693v1.50533h2.20346c-0.35997,0.94901 -1.26535,1.45079 -2.24709,1.45079c-1.36352,0 -2.44344,-1.14536 -2.44344,-2.57433c0,-1.43988 1.07991,-2.59615 2.44344,-2.59615c0.95992,0 1.79985,0.54541 2.22527,1.34171l1.35262,-0.98174c-0.73085,-1.18899 -2.07256,-1.97438 -3.5888,-1.97438c-2.31254,0 -4.16693,1.88712 -4.16693,4.21056c0,2.32345 1.85439,4.19965 4.17784,4.19965c2.33435,0 4.21056,-1.93075 4.21056,-4.33055z" data-paper-data="{&quot;glyphName&quot;:&quot;G&quot;,&quot;glyphIndex&quot;:3,&quot;word&quot;:1}" style="animation-play-state: paused;"></path><path d="M246.53232,254.96112v-1.52715h-3.34882v-2.02892h3.05429v-1.52715h-3.05429v-1.51624h2.62887v-1.52715h-4.31964v8.1266z" data-paper-data="{&quot;glyphName&quot;:&quot;E&quot;,&quot;glyphIndex&quot;:4,&quot;word&quot;:1}" style="animation-play-state: paused;"></path><path d="M255.79702,251.53595l-5.78134,-4.85415v8.27932h1.69077v-4.66871l5.78134,4.81051v-8.26841h-1.69077z" data-paper-data="{&quot;glyphName&quot;:&quot;N&quot;,&quot;glyphIndex&quot;:5,&quot;word&quot;:1}" style="animation-play-state: paused;"></path><path d="M266.34888,254.96112v-1.52715h-3.34882v-2.02892h3.05429v-1.52715h-3.05429v-1.51624h2.62887v-1.52715h-4.31964v8.1266z" data-paper-data="{&quot;glyphName&quot;:&quot;E&quot;,&quot;glyphIndex&quot;:6,&quot;word&quot;:1}" style="animation-play-state: paused;"></path><path d="M271.78479,251.36142c0.78539,0.08727 1.22172,0.49087 1.22172,1.14536c0,0.52359 -0.43633,0.97083 -0.99265,0.97083c-0.47996,0 -0.86175,-0.11999 -1.23263,-0.58904l-1.39625,1.02537c0.77448,0.85084 1.70168,1.18899 2.62887,1.18899c1.42897,0 2.74886,-1.13445 2.74886,-2.71614c0,-1.57078 -1.14536,-2.50888 -2.5307,-2.59615c-0.86175,-0.05454 -1.13445,-0.39269 -1.13445,-0.76357c0,-0.44724 0.30543,-0.71994 0.75267,-0.71994c0.28361,0 0.64358,0.17453 0.86175,0.4036l1.3308,-0.97083c-0.62177,-0.74176 -1.38534,-1.04719 -2.19255,-1.04719c-1.12354,0 -2.38889,0.97083 -2.38889,2.34526c0,1.27626 0.91629,2.15982 2.32345,2.32345z" data-paper-data="{&quot;glyphName&quot;:&quot;S&quot;,&quot;glyphIndex&quot;:7,&quot;lastGlyphOfWord&quot;:true,&quot;word&quot;:1}" style="animation-play-state: paused;"></path><path d="M291.35046,251.37233c-0.22907,1.22172 -1.25444,2.10528 -2.47616,2.10528c-1.36352,0 -2.44344,-1.14536 -2.44344,-2.57433c0,-1.43988 1.07991,-2.59615 2.44344,-2.59615c0.83993,0 1.66895,0.42542 2.258,1.29808l1.31989,-0.9381c-0.73085,-1.18899 -2.07256,-1.97438 -3.5888,-1.97438c-2.31254,0 -4.16693,1.88712 -4.16693,4.21056c0,2.32345 1.85439,4.19965 4.17784,4.19965c2.15982,0 3.94877,-1.64714 4.18875,-3.7306z" data-paper-data="{&quot;glyphName&quot;:&quot;C&quot;,&quot;glyphIndex&quot;:8,&quot;firstGlyphOfWord&quot;:true,&quot;word&quot;:2}" style="animation-play-state: paused;"></path><path d="M296.4155,246.83452v8.1266h4.96323v-1.52715h-3.27246v-6.59946z" data-paper-data="{&quot;glyphName&quot;:&quot;L&quot;,&quot;glyphIndex&quot;:9,&quot;word&quot;:2}" style="animation-play-state: paused;"></path><path d="M310.4907,254.96112h1.84348l-4.29783,-8.26841l-4.28692,8.26841h1.74531l0.52359,-1.09082h3.93786zM307.97091,249.81246l1.24353,2.5307h-2.46525z" data-paper-data="{&quot;glyphName&quot;:&quot;A&quot;,&quot;glyphIndex&quot;:10,&quot;word&quot;:2}" style="animation-play-state: paused;"></path><path d="M317.85737,253.55397l1.3308,1.40716h2.24709l-1.75622,-1.87621c1.13445,-0.52359 1.83258,-1.5926 1.83258,-3.05429c0,-1.76713 -1.4617,-3.1961 -3.37063,-3.1961h-2.82522v8.1266h1.69077v-1.40716zM317.00653,252.02682v-3.66515h1.02537c1.17808,0 1.77804,0.80721 1.77804,1.79985c0,1.13445 -0.67631,1.8653 -1.87621,1.8653z" data-paper-data="{&quot;glyphName&quot;:&quot;R&quot;,&quot;glyphIndex&quot;:11,&quot;word&quot;:2}" style="animation-play-state: paused;"></path><path d="M330.69995,254.96112h1.84348l-4.29783,-8.26841l-4.28692,8.26841h1.74531l0.52359,-1.09082h3.93786zM328.18016,249.81246l1.24353,2.5307h-2.46525z" data-paper-data="{&quot;glyphName&quot;:&quot;A&quot;,&quot;glyphIndex&quot;:12,&quot;word&quot;:2}" style="animation-play-state: paused;"></path><path d="M337.3794,251.36142c0.78539,0.08727 1.22172,0.49087 1.22172,1.14536c0,0.52359 -0.43633,0.97083 -0.99265,0.97083c-0.47996,0 -0.86175,-0.11999 -1.23263,-0.58904l-1.39625,1.02537c0.77448,0.85084 1.70168,1.18899 2.62887,1.18899c1.42897,0 2.74886,-1.13445 2.74886,-2.71614c0,-1.57078 -1.14536,-2.50888 -2.5307,-2.59615c-0.86175,-0.05454 -1.13445,-0.39269 -1.13445,-0.76357c0,-0.44724 0.30543,-0.71994 0.75267,-0.71994c0.28361,0 0.64358,0.17453 0.86175,0.4036l1.3308,-0.97083c-0.62177,-0.74176 -1.38534,-1.04719 -2.19255,-1.04719c-1.12354,0 -2.38889,0.97083 -2.38889,2.34526c0,1.27626 0.91629,2.15982 2.32345,2.32345z" data-paper-data="{&quot;glyphName&quot;:&quot;S&quot;,&quot;glyphIndex&quot;:13,&quot;word&quot;:2}" style="animation-play-state: paused;"></path><path d="M344.11339,256.73916l1.51624,-2.47616h-1.74531l-0.73085,2.47616z" data-paper-data="{&quot;glyphName&quot;:&quot;,&quot;,&quot;glyphIndex&quot;:14,&quot;lastGlyphOfWord&quot;:true,&quot;word&quot;:2}" style="animation-play-state: paused;"></path><path d="M357.93044,251.36142c0.78539,0.08727 1.22172,0.49087 1.22172,1.14536c0,0.52359 -0.43633,0.97083 -0.99265,0.97083c-0.47996,0 -0.86175,-0.11999 -1.23263,-0.58904l-1.39625,1.02537c0.77448,0.85084 1.70168,1.18899 2.62887,1.18899c1.42897,0 2.74886,-1.13445 2.74886,-2.71614c0,-1.57078 -1.14536,-2.50888 -2.5307,-2.59615c-0.86175,-0.05454 -1.13445,-0.39269 -1.13445,-0.76357c0,-0.44724 0.30543,-0.71994 0.75267,-0.71994c0.28361,0 0.64358,0.17453 0.86175,0.4036l1.3308,-0.97083c-0.62177,-0.74176 -1.38534,-1.04719 -2.19255,-1.04719c-1.12354,0 -2.38889,0.97083 -2.38889,2.34526c0,1.27626 0.91629,2.15982 2.32345,2.32345z" data-paper-data="{&quot;glyphName&quot;:&quot;S&quot;,&quot;glyphIndex&quot;:15,&quot;firstGlyphOfWord&quot;:true,&quot;word&quot;:3}" style="animation-play-state: paused;"></path><path d="M369.94399,254.96112h1.84348l-4.29783,-8.26841l-4.28692,8.26841h1.74531l0.52359,-1.09082h3.93786zM367.4242,249.81246l1.24353,2.5307h-2.46525z" data-paper-data="{&quot;glyphName&quot;:&quot;A&quot;,&quot;glyphIndex&quot;:16,&quot;word&quot;:3}" style="animation-play-state: paused;"></path><path d="M374.76905,246.83452v8.1266h4.96323v-1.52715h-3.27246v-6.59946z" data-paper-data="{&quot;glyphName&quot;:&quot;L&quot;,&quot;glyphIndex&quot;:17,&quot;word&quot;:3}" style="animation-play-state: paused;"></path><path d="M386.22629,255.10293c2.17073,0 3.49062,-1.39625 3.49062,-3.76333v-4.50508h-1.69077v4.64689c0,1.22172 -0.54541,1.9962 -1.79985,1.9962c-1.1999,0 -1.82167,-0.71994 -1.82167,-1.9962v-4.64689h-1.69077v4.36328c0,2.258 1.13445,3.90513 3.51244,3.90513z" data-paper-data="{&quot;glyphName&quot;:&quot;U&quot;,&quot;glyphIndex&quot;:18,&quot;word&quot;:3}" style="animation-play-state: paused;"></path><path d="M393.46206,246.83452v8.1266h3.30518c2.33435,0 4.24329,-1.7344 4.24329,-4.06876c0,-2.31254 -1.90893,-4.05785 -4.2542,-4.05785zM395.15283,253.43398v-5.07231h1.6035c1.41807,0 2.51979,1.05809 2.51979,2.5307c0,1.4617 -1.10173,2.54161 -2.50888,2.54161z" data-paper-data="{&quot;glyphName&quot;:&quot;D&quot;,&quot;glyphIndex&quot;:19,&quot;lastGlyphOfWord&quot;:true,&quot;word&quot;:3}" style="animation-play-state: paused;"></path><path d="M413.31134,251.36142c0.78539,0.08727 1.22172,0.49087 1.22172,1.14536c0,0.52359 -0.43633,0.97083 -0.99265,0.97083c-0.47996,0 -0.86175,-0.11999 -1.23263,-0.58904l-1.39625,1.02537c0.77448,0.85084 1.70168,1.18899 2.62887,1.18899c1.42897,0 2.74886,-1.13445 2.74886,-2.71614c0,-1.57078 -1.14536,-2.50888 -2.5307,-2.59615c-0.86175,-0.05454 -1.13445,-0.39269 -1.13445,-0.76357c0,-0.44724 0.30543,-0.71994 0.75267,-0.71994c0.28361,0 0.64358,0.17453 0.86175,0.4036l1.3308,-0.97083c-0.62177,-0.74176 -1.38534,-1.04719 -2.19255,-1.04719c-1.12354,0 -2.38889,0.97083 -2.38889,2.34526c0,1.27626 0.91629,2.15982 2.32345,2.32345z" data-paper-data="{&quot;glyphName&quot;:&quot;S&quot;,&quot;glyphIndex&quot;:20,&quot;firstGlyphOfWord&quot;:true,&quot;word&quot;:4}" style="animation-play-state: paused;"></path><path d="M424.73585,254.96112v-1.52715h-3.34882v-2.02892h3.05429v-1.52715h-3.05429v-1.51624h2.62887v-1.52715h-4.31964v8.1266z" data-paper-data="{&quot;glyphName&quot;:&quot;E&quot;,&quot;glyphIndex&quot;:21,&quot;word&quot;:4}" style="animation-play-state: paused;"></path><path d="M436.26945,250.52149h-4.16693v1.50533h2.20346c-0.35997,0.94901 -1.26535,1.45079 -2.24709,1.45079c-1.36352,0 -2.44344,-1.14536 -2.44344,-2.57433c0,-1.43988 1.07991,-2.59615 2.44344,-2.59615c0.95992,0 1.79985,0.54541 2.22527,1.34171l1.35262,-0.98174c-0.73085,-1.18899 -2.07256,-1.97438 -3.5888,-1.97438c-2.31254,0 -4.16693,1.88712 -4.16693,4.21056c0,2.32345 1.85439,4.19965 4.17784,4.19965c2.33435,0 4.21056,-1.93075 4.21056,-4.33055z" data-paper-data="{&quot;glyphName&quot;:&quot;G&quot;,&quot;glyphIndex&quot;:22,&quot;word&quot;:4}" style="animation-play-state: paused;"></path><path d="M443.16706,255.10293c2.17073,0 3.49062,-1.39625 3.49062,-3.76333v-4.50508h-1.69077v4.64689c0,1.22172 -0.54541,1.9962 -1.79985,1.9962c-1.1999,0 -1.82167,-0.71994 -1.82167,-1.9962v-4.64689h-1.69077v4.36328c0,2.258 1.13445,3.90513 3.51244,3.90513z" data-paper-data="{&quot;glyphName&quot;:&quot;U&quot;,&quot;glyphIndex&quot;:23,&quot;word&quot;:4}" style="animation-play-state: paused;"></path><path d="M452.94444,253.55397l1.3308,1.40716h2.24709l-1.75622,-1.87621c1.13445,-0.52359 1.83258,-1.5926 1.83258,-3.05429c0,-1.76713 -1.4617,-3.1961 -3.37063,-3.1961h-2.82522v8.1266h1.69077v-1.40716zM452.0936,252.02682v-3.66515h1.02537c1.17808,0 1.77804,0.80721 1.77804,1.79985c0,1.13445 -0.67631,1.8653 -1.87621,1.8653z" data-paper-data="{&quot;glyphName&quot;:&quot;R&quot;,&quot;glyphIndex&quot;:24,&quot;word&quot;:4}" style="animation-play-state: paused;"></path><path d="M465.78702,254.96112h1.84348l-4.29783,-8.26841l-4.28692,8.26841h1.74531l0.52359,-1.09082h3.93786zM463.26723,249.81246l1.24353,2.5307h-2.46525z" data-paper-data="{&quot;glyphName&quot;:&quot;A&quot;,&quot;glyphIndex&quot;:25,&quot;word&quot;:4}" style="animation-play-state: paused;"></path><path d="M471.33202,253.43398c-0.50178,0 -0.83993,0.37088 -0.83993,0.83993c0,0.44724 0.33815,0.82902 0.83993,0.82902c0.51269,0 0.83993,-0.38179 0.83993,-0.82902c0,-0.46905 -0.33815,-0.83993 -0.83993,-0.83993z" data-paper-data="{&quot;glyphName&quot;:&quot;.&quot;,&quot;glyphIndex&quot;:26,&quot;lastGlyphOfWord&quot;:true,&quot;word&quot;:4}" style="animation-play-state: paused;"></path><path d="M201.91418,235.70816v-1.12718h283.08582v1.12718z" data-paper-data="{&quot;isContainerTopLineAboveSecondaryText&quot;:true}" style="animation-play-state: paused;"></path><path d="M201.91418,267.40374v-1.12718h283.08582v1.12718z" data-paper-data="{&quot;isContainerBottomLineBelowSecondaryText&quot;:true}" style="animation-play-state: paused;"></path></g><g data-paper-data="{&quot;isPrimaryText&quot;:true}" style="animation-play-state: paused;"><path d="M210.42868,225.71575l4.45824,4.71404h7.52784l-5.88341,-6.28538c3.80046,-1.75406 6.13921,-5.33527 6.13921,-10.23202c0,-5.91995 -4.89675,-10.70708 -11.29176,-10.70708h-9.46462v27.22448h5.66415v-4.71404zM207.57833,220.59974v-12.27842h3.43503c3.94664,0 5.9565,2.70418 5.9565,6.02958c0,3.80046 -2.26566,6.24884 -6.28538,6.24884z" data-paper-data="{&quot;glyphName&quot;:&quot;R&quot;,&quot;glyphIndex&quot;:0,&quot;firstGlyphOfWord&quot;:true,&quot;word&quot;:1}" fill-rule="nonzero" style="animation-play-state: paused;"></path><path d="M245.83877,230.42979h6.17575l-14.39791,-27.69954l-14.36137,27.69954h5.84687l1.75406,-3.65429h13.192zM237.39736,213.18153l4.16589,8.47796h-8.2587z" data-paper-data="{&quot;glyphName&quot;:&quot;A&quot;,&quot;glyphIndex&quot;:1,&quot;word&quot;:1}" fill-rule="nonzero" style="animation-play-state: paused;"></path><path d="M254.38981,203.20531v27.22448h11.07251c7.82019,0 14.2152,-5.81032 14.2152,-13.63051c0,-7.7471 -6.39501,-13.59397 -14.25174,-13.59397zM260.05397,225.31378v-16.99246h5.37181c4.75058,0 8.44142,3.54466 8.44142,8.47796c0,4.89675 -3.69084,8.5145 -8.40487,8.5145z" data-paper-data="{&quot;glyphName&quot;:&quot;D&quot;,&quot;glyphIndex&quot;:2,&quot;word&quot;:1}" fill-rule="nonzero" style="animation-play-state: paused;"></path><path d="M289.39794,203.20531h-5.66415v27.22448h5.66415z" data-paper-data="{&quot;glyphName&quot;:&quot;I&quot;,&quot;glyphIndex&quot;:3,&quot;word&quot;:1}" fill-rule="nonzero" style="animation-play-state: paused;"></path><path d="M314.35675,230.42979h6.17575l-14.39791,-27.69954l-14.36137,27.69954h5.84687l1.75406,-3.65429h13.192zM305.91534,213.18153l4.16589,8.47796h-8.2587z" data-paper-data="{&quot;glyphName&quot;:&quot;A&quot;,&quot;glyphIndex&quot;:4,&quot;word&quot;:1}" fill-rule="nonzero" style="animation-play-state: paused;"></path><path d="M342.27555,218.95531l-19.36775,-16.2616v27.73608h5.66415v-15.64037l19.36775,16.11543v-27.69954h-5.66415z" data-paper-data="{&quot;glyphName&quot;:&quot;N&quot;,&quot;glyphIndex&quot;:5,&quot;word&quot;:1}" fill-rule="nonzero" style="animation-play-state: paused;"></path><path d="M363.61662,230.42979v-22.10847h7.16241v-5.11601h-19.55046v5.11601h6.7239v22.10847z" data-paper-data="{&quot;glyphName&quot;:&quot;T&quot;,&quot;glyphIndex&quot;:6,&quot;lastGlyphOfWord&quot;:true,&quot;word&quot;:1}" fill-rule="nonzero" style="animation-play-state: paused;"></path><path d="M401.1666,217.81758l7.25225,-14.87912c0.01238,-0.02552 0.0266,-0.05005 0.04263,-0.0736c0.01584,-0.02355 0.03319,-0.04588 0.05207,-0.067c0.01908,-0.02109 0.03949,-0.04078 0.06121,-0.05905c0.02172,-0.01825 0.04466,-0.03491 0.06882,-0.04997c0.02416,-0.01504 0.04913,-0.02834 0.07491,-0.03989c0.02599,-0.01155 0.05268,-0.02125 0.08009,-0.02908c0.0272,-0.00784 0.05492,-0.01372 0.08314,-0.01766c0.02802,-0.00396 0.05624,-0.00594 0.08466,-0.00594h5.84687c0.09582,0 0.18657,0.02143 0.27224,0.06429c0.01787,0.00893 0.03522,0.01871 0.05207,0.02933c0.01705,0.01064 0.0334,0.02207 0.04903,0.03429c0.01584,0.01222 0.03096,0.02519 0.04537,0.03892c0.01462,0.01372 0.02842,0.02812 0.04142,0.04318c0.01299,0.01506 0.02528,0.03074 0.03685,0.04702c0.01157,0.01628 0.02233,0.03308 0.03228,0.0504c0.00974,0.01734 0.01868,0.03511 0.0268,0.05332c0.00812,0.01821 0.01533,0.03678 0.02162,0.0557c0.00629,0.01894 0.01167,0.03814 0.01614,0.05759c0.00447,0.01945 0.00792,0.03907 0.01035,0.05886c0.00264,0.01977 0.00416,0.03964 0.00457,0.0596c0.00061,0.01994 0.0002,0.03985 -0.00122,0.05975c-0.00142,0.0199 -0.00376,0.03967 -0.007,0.05932c-0.00345,0.01967 -0.00782,0.03913 -0.01309,0.05838c-0.00528,0.01923 -0.01147,0.03816 -0.01858,0.05679c-0.00711,0.01862 -0.01512,0.03685 -0.02406,0.05469l-13.84977,27.69955c-0.02863,0.05708 -0.06527,0.10841 -0.10993,0.15399c-0.04466,0.04558 -0.09521,0.0832 -0.15165,0.11287c-0.03553,0.01859 -0.07248,0.03355 -0.11085,0.04487c-0.03837,0.01133 -0.07745,0.0188 -0.11724,0.02243c-0.03979,0.00363 -0.07958,0.00333 -0.11937,-0.00088c-0.03979,-0.00421 -0.07877,-0.01227 -0.11694,-0.02416c-0.03817,-0.01189 -0.07481,-0.02739 -0.10993,-0.0465c-0.03512,-0.01911 -0.06801,-0.04147 -0.09867,-0.06706c-0.03086,-0.0256 -0.05877,-0.05395 -0.08374,-0.08504c-0.02517,-0.0311 -0.0471,-0.06435 -0.06578,-0.09976l-14.54408,-27.69952c-0.04649,-0.08866 -0.06974,-0.18304 -0.06974,-0.28315c0,-0.01996 0.00102,-0.03985 0.00305,-0.05969c0.00183,-0.01985 0.00467,-0.03957 0.00853,-0.05914c0.00406,-0.01957 0.00893,-0.0389 0.01462,-0.05798c0.00589,-0.01908 0.01259,-0.03784 0.0201,-0.05628c0.00771,-0.01841 0.01624,-0.03642 0.02558,-0.05402c0.00934,-0.0176 0.01959,-0.03469 0.03076,-0.05125c0.01117,-0.01659 0.02304,-0.03259 0.03563,-0.04802c0.01259,-0.01541 0.02599,-0.03017 0.0402,-0.04428c0.01401,-0.01411 0.02873,-0.02749 0.04416,-0.04014c0.01543,-0.01267 0.03147,-0.02453 0.04811,-0.0356c0.01665,-0.01108 0.0337,-0.02133 0.05116,-0.03073c0.01766,-0.00942 0.03573,-0.01795 0.05421,-0.02558c0.01827,-0.00763 0.03695,-0.01434 0.05603,-0.02013c0.01908,-0.00579 0.03847,-0.01063 0.05816,-0.01453c0.01949,-0.00388 0.03918,-0.0068 0.05908,-0.00877c0.0199,-0.00195 0.03979,-0.00292 0.05969,-0.00292h6.50464c0.02781,0 0.05552,0.0019 0.08314,0.00569c0.02741,0.00378 0.05451,0.00942 0.08131,0.01693c0.0268,0.00749 0.05289,0.01678 0.07826,0.02786c0.02558,0.01108 0.05025,0.02385 0.074,0.03831c0.02375,0.01443 0.04639,0.03043 0.06791,0.04799c0.02152,0.01754 0.04172,0.03648 0.0606,0.05682c0.01908,0.02032 0.03664,0.04184 0.05268,0.06456c0.01604,0.02272 0.03035,0.04642 0.04294,0.07111zM392.55344,203.81436l8.08847,15.63998c0.03005,0.0582 0.06852,0.1102 0.11541,0.15598c0.0469,0.04578 0.09978,0.08302 0.15866,0.11173c0.03593,0.01752 0.07319,0.03137 0.11176,0.04154c0.03878,0.01017 0.07806,0.01647 0.11785,0.01891c0.03999,0.00244 0.07979,0.00095 0.11937,-0.00445c0.03959,-0.0054 0.07836,-0.01462 0.11633,-0.02765c0.03776,-0.01303 0.0739,-0.02963 0.10841,-0.04979c0.03451,-0.02016 0.06679,-0.04349 0.09684,-0.06998c0.02984,-0.02651 0.05684,-0.05569 0.081,-0.08752c0.02416,-0.03185 0.04507,-0.06575 0.06273,-0.10168l7.61676,-15.62706h4.48077l-12.87773,25.75512l-13.52301,-25.75512z" data-paper-data="{&quot;glyphName&quot;:&quot;V&quot;,&quot;glyphIndex&quot;:7,&quot;firstGlyphOfWord&quot;:true,&quot;fontStyleEffect&quot;:true,&quot;word&quot;:2}" fill-rule="evenodd" style="animation-play-state: paused;"></path><path d="M416.36024,230.42979v-27.22448c0,-0.01996 0.00102,-0.03985 0.00305,-0.05969c0.00183,-0.01985 0.00467,-0.03957 0.00853,-0.05914c0.00406,-0.01957 0.00893,-0.0389 0.01462,-0.05798c0.00589,-0.01908 0.01259,-0.03784 0.0201,-0.05628c0.00771,-0.01841 0.01624,-0.03642 0.02558,-0.05402c0.00934,-0.0176 0.01959,-0.03469 0.03076,-0.05125c0.01117,-0.01659 0.02304,-0.03259 0.03563,-0.04802c0.01259,-0.01541 0.02599,-0.03017 0.0402,-0.04428c0.01401,-0.01411 0.02873,-0.02749 0.04416,-0.04014c0.01543,-0.01267 0.03147,-0.02453 0.04811,-0.0356c0.01665,-0.01108 0.0337,-0.02133 0.05116,-0.03073c0.01766,-0.00942 0.03573,-0.01795 0.05421,-0.02558c0.01827,-0.00763 0.03695,-0.01434 0.05603,-0.02013c0.01908,-0.00579 0.03847,-0.01063 0.05816,-0.01453c0.01949,-0.00388 0.03918,-0.0068 0.05908,-0.00877c0.0199,-0.00195 0.03979,-0.00292 0.05969,-0.00292h5.66415c0.0199,0 0.03979,0.00097 0.05969,0.00292c0.0199,0.00197 0.03959,0.00489 0.05908,0.00877c0.01969,0.0039 0.03908,0.00874 0.05816,0.01453c0.01908,0.00579 0.03776,0.0125 0.05603,0.02013c0.01847,0.00763 0.03654,0.01616 0.05421,0.02558c0.01746,0.0094 0.03451,0.01964 0.05116,0.03073c0.01665,0.01106 0.03269,0.02293 0.04811,0.0356c0.01543,0.01265 0.03015,0.02603 0.04416,0.04014c0.01421,0.01411 0.02761,0.02887 0.0402,0.04428c0.01259,0.01543 0.02446,0.03144 0.03563,0.04802c0.01117,0.01657 0.02142,0.03365 0.03076,0.05125c0.00934,0.0176 0.01787,0.03561 0.02558,0.05402c0.00751,0.01843 0.01421,0.03719 0.0201,0.05628c0.00568,0.01908 0.01056,0.03841 0.01462,0.05798c0.00386,0.01957 0.0067,0.03928 0.00853,0.05914c0.00203,0.01983 0.00305,0.03973 0.00305,0.05969v27.22448c0,0.01995 -0.00102,0.03985 -0.00305,0.0597c-0.00183,0.01985 -0.00467,0.03956 -0.00853,0.05912c-0.00406,0.01956 -0.00893,0.03889 -0.01462,0.05798c-0.00589,0.01909 -0.01259,0.03785 -0.0201,0.05628c-0.00771,0.01843 -0.01624,0.03644 -0.02558,0.05403c-0.00934,0.01759 -0.01959,0.03468 -0.03076,0.05127c-0.01117,0.01659 -0.02304,0.03259 -0.03563,0.04801c-0.01259,0.01542 -0.02599,0.03018 -0.0402,0.04428c-0.01401,0.01411 -0.02873,0.02749 -0.04416,0.04014c-0.01543,0.01265 -0.03147,0.02452 -0.04811,0.0356c-0.01665,0.01108 -0.0337,0.02132 -0.05116,0.03073c-0.01766,0.0094 -0.03573,0.01792 -0.05421,0.02556c-0.01827,0.00763 -0.03695,0.01435 -0.05603,0.02014c-0.01908,0.00579 -0.03847,0.01063 -0.05816,0.01452c-0.01949,0.00389 -0.03918,0.00682 -0.05908,0.00877c-0.0199,0.00196 -0.03979,0.00293 -0.05969,0.00293h-5.66415c-0.0199,0 -0.03979,-0.00098 -0.05969,-0.00293c-0.0199,-0.00196 -0.03959,-0.00488 -0.05908,-0.00877c-0.01969,-0.00389 -0.03908,-0.00873 -0.05816,-0.01452c-0.01908,-0.00579 -0.03776,-0.0125 -0.05603,-0.02014c-0.01847,-0.00763 -0.03654,-0.01615 -0.05421,-0.02556c-0.01746,-0.0094 -0.03451,-0.01964 -0.05116,-0.03073c-0.01665,-0.01108 -0.03269,-0.02295 -0.04811,-0.0356c-0.01543,-0.01265 -0.03015,-0.02603 -0.04416,-0.04014c-0.01421,-0.0141 -0.02761,-0.02886 -0.0402,-0.04428c-0.01259,-0.01542 -0.02446,-0.03142 -0.03563,-0.04801c-0.01117,-0.01658 -0.02142,-0.03367 -0.03076,-0.05127c-0.00934,-0.01759 -0.01787,-0.0356 -0.02558,-0.05403c-0.00751,-0.01843 -0.01421,-0.03719 -0.0201,-0.05628c-0.00568,-0.01909 -0.01056,-0.03841 -0.01462,-0.05798c-0.00386,-0.01956 -0.0067,-0.03927 -0.00853,-0.05912c-0.00203,-0.01985 -0.00305,-0.03975 -0.00305,-0.0597zM422.02439,203.81436h-4.44606v26.00638h4.44606z" data-paper-data="{&quot;glyphName&quot;:&quot;I&quot;,&quot;glyphIndex&quot;:8,&quot;fontStyleEffect&quot;:true,&quot;word&quot;:2}" fill-rule="evenodd" style="animation-play-state: paused;"></path><path d="M444.70537,231.03884c0.0199,0 0.03979,-0.00098 0.05969,-0.00293c0.0199,-0.00196 0.03959,-0.00488 0.05908,-0.00877c0.01969,-0.00389 0.03908,-0.00873 0.05816,-0.01452c0.01908,-0.00579 0.03776,-0.0125 0.05603,-0.02014c0.01847,-0.00763 0.03654,-0.01615 0.05421,-0.02556c0.01746,-0.0094 0.03451,-0.01964 0.05116,-0.03073c0.01665,-0.01108 0.03269,-0.02295 0.04811,-0.0356c0.01543,-0.01265 0.03015,-0.02603 0.04416,-0.04014c0.01421,-0.0141 0.02761,-0.02886 0.0402,-0.04428c0.01259,-0.01542 0.02446,-0.03142 0.03563,-0.04801c0.01117,-0.01658 0.02142,-0.03367 0.03076,-0.05127c0.00934,-0.01759 0.01787,-0.0356 0.02558,-0.05403c0.00751,-0.01843 0.01421,-0.03719 0.0201,-0.05628c0.00568,-0.01909 0.01056,-0.03841 0.01462,-0.05798c0.00386,-0.01956 0.0067,-0.03927 0.00853,-0.05912c0.00203,-0.01985 0.00305,-0.03975 0.00305,-0.0597v-5.11601c0,-0.01996 -0.00102,-0.03985 -0.00305,-0.05969c-0.00183,-0.01985 -0.00467,-0.03957 -0.00853,-0.05914c-0.00406,-0.01955 -0.00893,-0.03888 -0.01462,-0.05798c-0.00589,-0.01908 -0.01259,-0.03784 -0.0201,-0.05628c-0.00771,-0.01841 -0.01624,-0.03642 -0.02558,-0.05402c-0.00934,-0.01758 -0.01959,-0.03467 -0.03076,-0.05125c-0.01117,-0.01659 -0.02304,-0.03259 -0.03563,-0.04802c-0.01259,-0.01541 -0.02599,-0.03017 -0.0402,-0.04428c-0.01401,-0.01411 -0.02873,-0.02749 -0.04416,-0.04014c-0.01543,-0.01267 -0.03147,-0.02453 -0.04811,-0.0356c-0.01665,-0.01108 -0.0337,-0.02133 -0.05116,-0.03073c-0.01766,-0.00942 -0.03573,-0.01795 -0.05421,-0.02558c-0.01827,-0.00763 -0.03695,-0.01434 -0.05603,-0.02013c-0.01908,-0.00579 -0.03847,-0.01063 -0.05816,-0.01453c-0.01949,-0.00388 -0.03918,-0.0068 -0.05908,-0.00877c-0.0199,-0.00195 -0.03979,-0.00292 -0.05969,-0.00292h-10.60963v-5.57889h9.62297c0.0199,0 0.03979,-0.00097 0.05969,-0.00292c0.0199,-0.00197 0.03959,-0.00489 0.05908,-0.00877c0.01969,-0.0039 0.03908,-0.00874 0.05816,-0.01453c0.01908,-0.00579 0.03776,-0.0125 0.05603,-0.02013c0.01847,-0.00763 0.03654,-0.01616 0.05421,-0.02558c0.01746,-0.0094 0.03451,-0.01964 0.05116,-0.03073c0.01665,-0.01106 0.03269,-0.02293 0.04811,-0.0356c0.01543,-0.01265 0.03015,-0.02603 0.04416,-0.04014c0.01421,-0.01411 0.02761,-0.02887 0.0402,-0.04428c0.01259,-0.01543 0.02446,-0.03144 0.03563,-0.04802c0.01117,-0.01659 0.02142,-0.03367 0.03076,-0.05125c0.00934,-0.0176 0.01787,-0.03561 0.02558,-0.05402c0.00751,-0.01843 0.01421,-0.03719 0.0201,-0.05628c0.00568,-0.0191 0.01056,-0.03843 0.01462,-0.05798c0.00386,-0.01957 0.0067,-0.03928 0.00853,-0.05914c0.00203,-0.01983 0.00305,-0.03973 0.00305,-0.05969v-5.11601c0,-0.01996 -0.00102,-0.03985 -0.00305,-0.05969c-0.00183,-0.01985 -0.00467,-0.03957 -0.00853,-0.05914c-0.00406,-0.01955 -0.00893,-0.03888 -0.01462,-0.05798c-0.00589,-0.01908 -0.01259,-0.03784 -0.0201,-0.05628c-0.00771,-0.01841 -0.01624,-0.03642 -0.02558,-0.05402c-0.00934,-0.01758 -0.01959,-0.03467 -0.03076,-0.05125c-0.01117,-0.01659 -0.02304,-0.03259 -0.03563,-0.04802c-0.01259,-0.01541 -0.02599,-0.03017 -0.0402,-0.04428c-0.01401,-0.01411 -0.02873,-0.02749 -0.04416,-0.04014c-0.01543,-0.01267 -0.03147,-0.02453 -0.04811,-0.0356c-0.01665,-0.01108 -0.0337,-0.02133 -0.05116,-0.03073c-0.01766,-0.00942 -0.03573,-0.01795 -0.05421,-0.02558c-0.01827,-0.00763 -0.03695,-0.01434 -0.05603,-0.02013c-0.01908,-0.00579 -0.03847,-0.01063 -0.05816,-0.01453c-0.01949,-0.00388 -0.03918,-0.0068 -0.05908,-0.00877c-0.0199,-0.00195 -0.03979,-0.00292 -0.05969,-0.00292h-9.62297v-3.86137h8.1978c0.0199,0 0.03979,-0.00097 0.05969,-0.00292c0.0199,-0.00197 0.03959,-0.00489 0.05908,-0.00877c0.01969,-0.0039 0.03908,-0.00874 0.05816,-0.01453c0.01908,-0.00579 0.03776,-0.0125 0.05603,-0.02013c0.01847,-0.00763 0.03654,-0.01616 0.05421,-0.02558c0.01746,-0.0094 0.03451,-0.01964 0.05116,-0.03073c0.01665,-0.01106 0.03269,-0.02293 0.04811,-0.0356c0.01543,-0.01265 0.03015,-0.02603 0.04416,-0.04014c0.01421,-0.01411 0.02761,-0.02887 0.0402,-0.04428c0.01259,-0.01543 0.02446,-0.03144 0.03563,-0.04802c0.01117,-0.01657 0.02142,-0.03365 0.03076,-0.05125c0.00934,-0.0176 0.01787,-0.03561 0.02558,-0.05402c0.00751,-0.01843 0.01421,-0.03719 0.0201,-0.05628c0.00568,-0.01908 0.01056,-0.03841 0.01462,-0.05798c0.00386,-0.01957 0.0067,-0.03928 0.00853,-0.05914c0.00203,-0.01983 0.00305,-0.03973 0.00305,-0.05969v-5.11601c0,-0.01996 -0.00102,-0.03985 -0.00305,-0.05969c-0.00183,-0.01985 -0.00467,-0.03957 -0.00853,-0.05914c-0.00406,-0.01957 -0.00893,-0.0389 -0.01462,-0.05798c-0.00589,-0.01908 -0.01259,-0.03784 -0.0201,-0.05628c-0.00771,-0.01841 -0.01624,-0.03642 -0.02558,-0.05402c-0.00934,-0.0176 -0.01959,-0.03469 -0.03076,-0.05125c-0.01117,-0.01659 -0.02304,-0.03259 -0.03563,-0.04802c-0.01259,-0.01541 -0.02599,-0.03017 -0.0402,-0.04428c-0.01401,-0.01411 -0.02873,-0.02749 -0.04416,-0.04014c-0.01543,-0.01267 -0.03147,-0.02453 -0.04811,-0.0356c-0.01665,-0.01108 -0.0337,-0.02133 -0.05116,-0.03073c-0.01766,-0.00942 -0.03573,-0.01795 -0.05421,-0.02558c-0.01827,-0.00763 -0.03695,-0.01434 -0.05603,-0.02013c-0.01908,-0.00579 -0.03847,-0.01063 -0.05816,-0.01453c-0.01949,-0.00388 -0.03918,-0.0068 -0.05908,-0.00877c-0.0199,-0.00195 -0.03979,-0.00292 -0.05969,-0.00292h-14.471c-0.0199,0 -0.03979,0.00097 -0.05969,0.00292c-0.0199,0.00197 -0.03959,0.00489 -0.05908,0.00877c-0.01969,0.0039 -0.03908,0.00874 -0.05816,0.01453c-0.01908,0.00579 -0.03776,0.0125 -0.05603,0.02013c-0.01847,0.00763 -0.03654,0.01616 -0.05421,0.02558c-0.01746,0.0094 -0.03451,0.01964 -0.05116,0.03073c-0.01665,0.01106 -0.03269,0.02293 -0.04811,0.0356c-0.01543,0.01265 -0.03015,0.02603 -0.04416,0.04014c-0.01421,0.01411 -0.02761,0.02887 -0.0402,0.04428c-0.01259,0.01543 -0.02446,0.03144 -0.03563,0.04802c-0.01117,0.01657 -0.02142,0.03365 -0.03076,0.05125c-0.00934,0.0176 -0.01787,0.03561 -0.02558,0.05402c-0.00751,0.01843 -0.01421,0.03719 -0.0201,0.05628c-0.00568,0.01908 -0.01056,0.03841 -0.01462,0.05798c-0.00386,0.01957 -0.0067,0.03928 -0.00853,0.05914c-0.00203,0.01983 -0.00305,0.03973 -0.00305,0.05969v27.22448c0,0.01995 0.00102,0.03985 0.00305,0.0597c0.00183,0.01985 0.00467,0.03956 0.00853,0.05912c0.00406,0.01956 0.00893,0.03889 0.01462,0.05798c0.00589,0.01909 0.01259,0.03785 0.0201,0.05628c0.00771,0.01843 0.01624,0.03644 0.02558,0.05403c0.00934,0.01759 0.01959,0.03468 0.03076,0.05127c0.01117,0.01659 0.02304,0.03259 0.03563,0.04801c0.01259,0.01542 0.02599,0.03018 0.0402,0.04428c0.01401,0.01411 0.02873,0.02749 0.04416,0.04014c0.01543,0.01265 0.03147,0.02452 0.04811,0.0356c0.01665,0.01108 0.0337,0.02132 0.05116,0.03073c0.01766,0.0094 0.03573,0.01792 0.05421,0.02556c0.01827,0.00763 0.03695,0.01435 0.05603,0.02014c0.01908,0.00579 0.03847,0.01063 0.05816,0.01452c0.01949,0.00389 0.03918,0.00682 0.05908,0.00877c0.0199,0.00196 0.03979,0.00293 0.05969,0.00293zM444.09632,229.82074v-3.89791h-10.60963c-0.0199,0 -0.03979,-0.00097 -0.05969,-0.00292c-0.0199,-0.00197 -0.03959,-0.00489 -0.05908,-0.00877c-0.01969,-0.0039 -0.03908,-0.00874 -0.05816,-0.01453c-0.01908,-0.00579 -0.03776,-0.0125 -0.05603,-0.02013c-0.01847,-0.00763 -0.03654,-0.01616 -0.05421,-0.02558c-0.01746,-0.0094 -0.03451,-0.01964 -0.05116,-0.03073c-0.01665,-0.01106 -0.03269,-0.02293 -0.04811,-0.0356c-0.01543,-0.01265 -0.03015,-0.02603 -0.04416,-0.04014c-0.01421,-0.01411 -0.02761,-0.02887 -0.0402,-0.04428c-0.01259,-0.01543 -0.02446,-0.03144 -0.03563,-0.04802c-0.01117,-0.01659 -0.02142,-0.03367 -0.03076,-0.05125c-0.00934,-0.0176 -0.01787,-0.03561 -0.02558,-0.05402c-0.00751,-0.01843 -0.01421,-0.03719 -0.0201,-0.05628c-0.00568,-0.0191 -0.01056,-0.03843 -0.01462,-0.05798c-0.00386,-0.01957 -0.0067,-0.03928 -0.00853,-0.05914c-0.00203,-0.01983 -0.00305,-0.03973 -0.00305,-0.05969v-6.79698c0,-0.01996 0.00102,-0.03985 0.00305,-0.05969c0.00183,-0.01985 0.00467,-0.03957 0.00853,-0.05914c0.00406,-0.01955 0.00893,-0.03888 0.01462,-0.05798c0.00589,-0.01908 0.01259,-0.03784 0.0201,-0.05628c0.00771,-0.01841 0.01624,-0.03642 0.02558,-0.05402c0.00934,-0.01758 0.01959,-0.03467 0.03076,-0.05125c0.01117,-0.01659 0.02304,-0.03259 0.03563,-0.04802c0.01259,-0.01541 0.02599,-0.03017 0.0402,-0.04428c0.01401,-0.01411 0.02873,-0.02749 0.04416,-0.04014c0.01543,-0.01267 0.03147,-0.02453 0.04811,-0.0356c0.01665,-0.01108 0.0337,-0.02133 0.05116,-0.03073c0.01766,-0.00942 0.03573,-0.01795 0.05421,-0.02558c0.01827,-0.00763 0.03695,-0.01434 0.05603,-0.02013c0.01908,-0.00579 0.03847,-0.01063 0.05816,-0.01453c0.01949,-0.00388 0.03918,-0.0068 0.05908,-0.00877c0.0199,-0.00195 0.03979,-0.00292 0.05969,-0.00292h9.62297v-3.89791h-9.62297c-0.0199,0 -0.03979,-0.00097 -0.05969,-0.00292c-0.0199,-0.00197 -0.03959,-0.00489 -0.05908,-0.00877c-0.01969,-0.0039 -0.03908,-0.00874 -0.05816,-0.01453c-0.01908,-0.00579 -0.03776,-0.0125 -0.05603,-0.02013c-0.01847,-0.00763 -0.03654,-0.01616 -0.05421,-0.02558c-0.01746,-0.0094 -0.03451,-0.01964 -0.05116,-0.03073c-0.01665,-0.01106 -0.03269,-0.02293 -0.04811,-0.0356c-0.01543,-0.01265 -0.03015,-0.02603 -0.04416,-0.04014c-0.01421,-0.01411 -0.02761,-0.02887 -0.0402,-0.04428c-0.01259,-0.01543 -0.02446,-0.03144 -0.03563,-0.04802c-0.01117,-0.01659 -0.02142,-0.03367 -0.03076,-0.05125c-0.00934,-0.0176 -0.01787,-0.03561 -0.02558,-0.05402c-0.00751,-0.01843 -0.01421,-0.03719 -0.0201,-0.05628c-0.00568,-0.0191 -0.01056,-0.03843 -0.01462,-0.05798c-0.00386,-0.01957 -0.0067,-0.03928 -0.00853,-0.05914c-0.00203,-0.01983 -0.00305,-0.03973 -0.00305,-0.05969v-5.07947c0,-0.01994 0.00102,-0.03983 0.00305,-0.05969c0.00183,-0.01985 0.00467,-0.03957 0.00853,-0.05914c0.00406,-0.01955 0.00893,-0.03888 0.01462,-0.05798c0.00589,-0.01908 0.01259,-0.03784 0.0201,-0.05628c0.00771,-0.01841 0.01624,-0.03642 0.02558,-0.05402c0.00934,-0.01758 0.01959,-0.03467 0.03076,-0.05125c0.01117,-0.01659 0.02304,-0.03259 0.03563,-0.04802c0.01259,-0.01541 0.02599,-0.03017 0.0402,-0.04428c0.01401,-0.01411 0.02873,-0.02749 0.04416,-0.04014c0.01543,-0.01267 0.03147,-0.02453 0.04811,-0.0356c0.01665,-0.01108 0.0337,-0.02133 0.05116,-0.03073c0.01766,-0.00942 0.03573,-0.01795 0.05421,-0.02558c0.01827,-0.00763 0.03695,-0.01434 0.05603,-0.02013c0.01908,-0.00579 0.03847,-0.01063 0.05816,-0.01453c0.01949,-0.00388 0.03918,-0.0068 0.05908,-0.00877c0.0199,-0.00195 0.03979,-0.00292 0.05969,-0.00292h8.1978v-3.89791h-13.2529v26.00638z" data-paper-data="{&quot;glyphName&quot;:&quot;E&quot;,&quot;glyphIndex&quot;:9,&quot;fontStyleEffect&quot;:true,&quot;word&quot;:2}" fill-rule="evenodd" style="animation-play-state: paused;"></path><path d="M470.74311,217.81508l7.21662,-14.87559c0.01238,-0.0256 0.02649,-0.05021 0.04233,-0.07382c0.01584,-0.02361 0.03329,-0.046 0.05238,-0.06718c0.01888,-0.02117 0.03918,-0.04092 0.0609,-0.05923c0.02193,-0.01831 0.04487,-0.03502 0.06882,-0.05012c0.02416,-0.0151 0.04923,-0.02844 0.07522,-0.04001c0.02599,-0.01159 0.05268,-0.02132 0.08009,-0.02917c0.0272,-0.00786 0.05492,-0.01377 0.08314,-0.01775c0.02822,-0.00396 0.05654,-0.00594 0.08496,-0.00594h5.88341c0.09582,0 0.18657,0.02143 0.27224,0.06429c0.01787,0.00893 0.03522,0.01871 0.05207,0.02933c0.01705,0.01064 0.0334,0.02207 0.04903,0.03429c0.01584,0.01222 0.03096,0.02519 0.04537,0.03892c0.01462,0.01372 0.02842,0.02812 0.04142,0.04318c0.01299,0.01506 0.02528,0.03074 0.03685,0.04702c0.01157,0.01628 0.02233,0.03308 0.03228,0.0504c0.00974,0.01734 0.01868,0.03511 0.0268,0.05332c0.00812,0.01821 0.01533,0.03678 0.02162,0.0557c0.00629,0.01894 0.01167,0.03814 0.01614,0.05759c0.00447,0.01945 0.00792,0.03907 0.01035,0.05886c0.00264,0.01977 0.00416,0.03964 0.00457,0.0596c0.00061,0.01994 0.0002,0.03985 -0.00122,0.05975c-0.00142,0.0199 -0.00386,0.03967 -0.00731,0.05932c-0.00325,0.01967 -0.00751,0.03913 -0.01279,0.05838c-0.00528,0.01923 -0.01147,0.03816 -0.01858,0.05679c-0.00711,0.01862 -0.01512,0.03685 -0.02406,0.05469l-13.84977,27.69955c-0.02842,0.05666 -0.06476,0.10765 -0.10902,0.15299c-0.04426,0.04534 -0.0943,0.08286 -0.15013,0.11256c-0.01766,0.00935 -0.03573,0.01782 -0.05421,0.02541c-0.01847,0.00758 -0.03725,0.01424 -0.05634,0.01998c-0.01908,0.00574 -0.03837,0.01052 -0.05786,0.01436c-0.01969,0.00384 -0.03939,0.00671 -0.05908,0.00861c-0.0199,0.0019 -0.03989,0.00282 -0.05999,0.00277c-0.0199,-0.00005 -0.03979,-0.00109 -0.05969,-0.0031c-0.01969,-0.00201 -0.03939,-0.00499 -0.05908,-0.00893c-0.01949,-0.00395 -0.03878,-0.00884 -0.05786,-0.01468c-0.01908,-0.00584 -0.03776,-0.01261 -0.05603,-0.02029c-0.01847,-0.00769 -0.03654,-0.01625 -0.05421,-0.0257c-0.01746,-0.00945 -0.03451,-0.01974 -0.05116,-0.03087c-0.01644,-0.01113 -0.03238,-0.02304 -0.04781,-0.03574c-0.01543,-0.0127 -0.03015,-0.02612 -0.04416,-0.04026c-0.01401,-0.01414 -0.02741,-0.02894 -0.0402,-0.0444c-0.01259,-0.01546 -0.02436,-0.03149 -0.03532,-0.04811c-0.01096,-0.01662 -0.02111,-0.03373 -0.03045,-0.05135l-5.40165,-10.17324l-5.06302,10.1593c-0.02842,0.05724 -0.06507,0.10872 -0.10993,0.15442c-0.04466,0.0457 -0.09532,0.08342 -0.15196,0.11315c-0.03553,0.01859 -0.07248,0.03355 -0.11085,0.04487c-0.03837,0.01133 -0.07745,0.0188 -0.11724,0.02243c-0.03979,0.00363 -0.07958,0.00333 -0.11937,-0.00088c-0.03979,-0.00421 -0.07877,-0.01227 -0.11694,-0.02416c-0.03817,-0.01189 -0.07481,-0.02739 -0.10993,-0.0465c-0.03512,-0.01911 -0.06801,-0.04147 -0.09867,-0.06706c-0.03086,-0.0256 -0.05877,-0.05395 -0.08374,-0.08504c-0.02517,-0.0311 -0.0471,-0.06435 -0.06578,-0.09976l-14.54408,-27.69952c-0.04649,-0.08866 -0.06974,-0.18304 -0.06974,-0.28315c0,-0.01996 0.00102,-0.03985 0.00305,-0.05969c0.00183,-0.01985 0.00467,-0.03957 0.00853,-0.05914c0.00406,-0.01957 0.00893,-0.0389 0.01462,-0.05798c0.00589,-0.01908 0.01259,-0.03784 0.0201,-0.05628c0.00771,-0.01841 0.01624,-0.03642 0.02558,-0.05402c0.00934,-0.0176 0.01959,-0.03469 0.03076,-0.05125c0.01117,-0.01659 0.02304,-0.03259 0.03563,-0.04802c0.01259,-0.01541 0.02599,-0.03017 0.0402,-0.04428c0.01401,-0.01411 0.02873,-0.02749 0.04416,-0.04014c0.01543,-0.01267 0.03147,-0.02453 0.04811,-0.0356c0.01665,-0.01108 0.0337,-0.02133 0.05116,-0.03073c0.01766,-0.00942 0.03573,-0.01795 0.05421,-0.02558c0.01827,-0.00763 0.03695,-0.01434 0.05603,-0.02013c0.01908,-0.00579 0.03847,-0.01063 0.05816,-0.01453c0.01949,-0.00388 0.03918,-0.0068 0.05908,-0.00877c0.0199,-0.00195 0.03979,-0.00292 0.05969,-0.00292h6.50464c0.02781,0 0.05552,0.0019 0.08314,0.00569c0.02741,0.00378 0.05451,0.00942 0.08131,0.01693c0.0268,0.00749 0.05289,0.01678 0.07826,0.02786c0.02558,0.01108 0.05025,0.02385 0.074,0.03831c0.02375,0.01443 0.04639,0.03043 0.06791,0.04799c0.02152,0.01754 0.04172,0.03648 0.0606,0.05682c0.01908,0.02032 0.03664,0.04184 0.05268,0.06456c0.01604,0.02272 0.03035,0.04642 0.04294,0.07111l7.71847,14.92456l1.87069,-3.60758l-5.6267,-10.75489c-0.04629,-0.08841 -0.06943,-0.18252 -0.06943,-0.28232c0,-0.01996 0.00102,-0.03985 0.00305,-0.05969c0.00183,-0.01985 0.00467,-0.03957 0.00853,-0.05914c0.00406,-0.01957 0.00893,-0.0389 0.01462,-0.05798c0.00589,-0.01908 0.01259,-0.03784 0.0201,-0.05628c0.00771,-0.01841 0.01624,-0.03642 0.02558,-0.05402c0.00934,-0.0176 0.01959,-0.03469 0.03076,-0.05125c0.01117,-0.01659 0.02304,-0.03259 0.03563,-0.04802c0.01259,-0.01541 0.02599,-0.03017 0.0402,-0.04428c0.01401,-0.01411 0.02873,-0.02749 0.04416,-0.04014c0.01543,-0.01267 0.03147,-0.02453 0.04811,-0.0356c0.01665,-0.01108 0.0337,-0.02133 0.05116,-0.03073c0.01766,-0.00942 0.03573,-0.01795 0.05421,-0.02558c0.01827,-0.00763 0.03695,-0.01434 0.05603,-0.02013c0.01908,-0.00579 0.03847,-0.01063 0.05816,-0.01453c0.01949,-0.00388 0.03918,-0.0068 0.05908,-0.00877c0.0199,-0.00195 0.03979,-0.00292 0.05969,-0.00292h6.50464c0.02781,0 0.05552,0.0019 0.08314,0.00569c0.02741,0.00378 0.05451,0.00942 0.08131,0.01693c0.0268,0.00749 0.05289,0.01678 0.07826,0.02786c0.02558,0.01108 0.05025,0.02385 0.074,0.03831c0.02375,0.01443 0.04639,0.03043 0.06791,0.04799c0.02152,0.01754 0.04172,0.03648 0.0606,0.05682c0.01908,0.02032 0.03664,0.04184 0.05268,0.06456c0.01604,0.02272 0.03035,0.04642 0.04294,0.07111zM462.13116,203.81436l8.08817,15.63998c0.03025,0.05839 0.06892,0.11051 0.11602,0.15637c0.0471,0.04586 0.10019,0.08314 0.15927,0.11182c0.01787,0.00871 0.03624,0.01652 0.05512,0.02342c0.01868,0.0069 0.03766,0.01288 0.05695,0.01794c0.01929,0.00503 0.03878,0.00912 0.05847,0.01224c0.01969,0.00311 0.03949,0.00525 0.05938,0.00643c0.0199,0.00118 0.03979,0.00138 0.05969,0.00061c0.0199,-0.00079 0.03979,-0.00255 0.05969,-0.00527c0.01969,-0.00274 0.03928,-0.00644 0.05877,-0.01108c0.01929,-0.00467 0.03837,-0.01026 0.05725,-0.01678c0.01888,-0.00654 0.03735,-0.01399 0.05542,-0.02235c0.01807,-0.00834 0.03573,-0.01756 0.05299,-0.02765c0.01726,-0.01007 0.0339,-0.02097 0.04994,-0.03271c0.01624,-0.01171 0.03177,-0.0242 0.04659,-0.03746c0.01502,-0.01324 0.02923,-0.02718 0.04263,-0.04184c0.0136,-0.01464 0.02649,-0.02991 0.03867,-0.04583c0.01198,-0.0159 0.02314,-0.03235 0.0335,-0.04936c0.01056,-0.01699 0.0201,-0.03446 0.02863,-0.05241l7.58083,-15.62606h4.5164l-12.88047,25.7611l-5.40257,-10.17491c-0.02964,-0.05607 -0.0672,-0.10626 -0.11267,-0.15056c-0.04548,-0.0443 -0.09664,-0.08061 -0.15348,-0.10893c-0.01787,-0.00889 -0.03614,-0.01689 -0.05481,-0.024c-0.01847,-0.00711 -0.03735,-0.01329 -0.05664,-0.01855c-0.01929,-0.00524 -0.03878,-0.00952 -0.05847,-0.01285c-0.01969,-0.00333 -0.03949,-0.00569 -0.05938,-0.0071c-0.0199,-0.00138 -0.03979,-0.00179 -0.05969,-0.00122c-0.0199,0.00057 -0.03979,0.00211 -0.05969,0.00463c-0.01969,0.00254 -0.03928,0.00603 -0.05877,0.01048c-0.01949,0.00445 -0.03867,0.00984 -0.05756,0.01617c-0.01888,0.00633 -0.03746,0.01357 -0.05573,0.02171c-0.01807,0.00816 -0.03583,0.0172 -0.05329,0.0271c-0.01726,0.00989 -0.03401,0.02061 -0.05025,0.03216c-0.01624,0.01155 -0.03187,0.02387 -0.0469,0.03697c-0.01523,0.01309 -0.02964,0.02689 -0.04324,0.04138c-0.0136,0.0145 -0.0266,0.02963 -0.03898,0.0454c-0.01218,0.01577 -0.02355,0.03211 -0.03411,0.049c-0.01056,0.01691 -0.0203,0.03429 -0.02923,0.05213l-5.05998,10.15328l-13.5224,-25.75343h5.12636l8.08847,15.63998c0.02883,0.05591 0.06547,0.10614 0.10993,0.15068c0.04446,0.04452 0.09461,0.08127 0.15044,0.11024c0.01787,0.00918 0.03604,0.01747 0.05451,0.02488c0.01847,0.00741 0.03725,0.01389 0.05634,0.01943c0.01929,0.00554 0.03867,0.01014 0.05816,0.01379c0.01969,0.00365 0.03949,0.00633 0.05938,0.00804c0.0199,0.00171 0.03979,0.00243 0.05969,0.00216c0.0199,-0.00024 0.03979,-0.00146 0.05969,-0.00365c0.0199,-0.00221 0.03959,-0.00539 0.05908,-0.00953c0.01949,-0.00412 0.03867,-0.0092 0.05756,-0.01523c0.01908,-0.00603 0.03776,-0.01298 0.05603,-0.02086c0.01847,-0.00786 0.03644,-0.0166 0.0539,-0.02622c0.01746,-0.00962 0.03441,-0.02008 0.05086,-0.03137c0.01644,-0.01129 0.03228,-0.02336 0.04751,-0.03621c0.01523,-0.01285 0.02984,-0.02641 0.04385,-0.04068c0.01381,-0.01427 0.027,-0.0292 0.03959,-0.0448c0.01238,-0.01557 0.02406,-0.03172 0.03502,-0.04845c0.01076,-0.01671 0.02081,-0.03392 0.03015,-0.05165l2.558,-4.93329c0.02253,-0.04347 0.03959,-0.089 0.05116,-0.13661c0.01137,-0.04759 0.01705,-0.09587 0.01705,-0.14486c0,-0.04897 -0.00589,-0.09722 -0.01766,-0.14477c-0.01177,-0.04757 -0.02903,-0.09304 -0.05177,-0.13643l-5.30725,-10.14459z" data-paper-data="{&quot;glyphName&quot;:&quot;W&quot;,&quot;glyphIndex&quot;:10,&quot;lastGlyphOfWord&quot;:true,&quot;fontStyleEffect&quot;:true,&quot;word&quot;:2}" fill-rule="evenodd" style="animation-play-state: paused;"></path></g><g data-paper-data="{&quot;fillRule&quot;:&quot;nonzero&quot;,&quot;fillRuleOriginal&quot;:&quot;nonzero&quot;,&quot;isIcon&quot;:true,&quot;iconStyle&quot;:&quot;standalone&quot;,&quot;selectedEffects&quot;:{&quot;container&quot;:&quot;&quot;,&quot;transformation&quot;:&quot;&quot;,&quot;pattern&quot;:&quot;&quot;},&quot;bounds&quot;:{&quot;x&quot;:65,&quot;y&quot;:166.08805414541877,&quot;width&quot;:106.91196368044868,&quot;height&quot;:137.8238917091624},&quot;iconType&quot;:&quot;icon&quot;,&quot;rawIconId&quot;:&quot;758dbc46-ade0-45b0-9750-cd4a9fade8db&quot;,&quot;isDetailed&quot;:false,&quot;suitableAsStandaloneIcon&quot;:true}" fill-rule="nonzero" style="animation-play-state: paused;"><path d="M138.24356,255.67358l6.49741,-2.55959l27.17099,50.79795h-38.78758l-26.97411,-50.60106h-6.89119v50.60106h-34.25908v-137.82388h7.08808v130.7358h19.88602v-50.40417l18.31089,-0.19689l27.17099,50.60106h22.64249zM85.4767,173.17614v118.72543h-7.08808v-125.81352h34.84976c22.64249,0 38.78758,7.48187 46.66323,21.46115c3.34715,6.49741 5.11917,13.78239 5.11917,21.85493c0,24.21763 -12.60104,38.59069 -36.228,42.72541l21.46115,39.96893h-8.07255l-24.61141,-45.48188l5.31607,-0.59067c22.24871,-2.36269 35.04664,-15.35752 35.04664,-36.62178c0,-23.43006 -16.14508,-36.228 -44.69432,-36.228zM91.97411,240.11917v-6.89119h19.68913c22.24871,0 32.68395,-7.28498 32.68395,-22.83939c0,-14.96374 -10.23834,-23.43006 -27.76167,-23.43006h-17.52332v6.69431h15.35752c10.23834,0 16.93265,2.36269 20.2798,7.28498c1.77202,2.16581 2.55959,4.92228 2.55959,8.46632c0,11.2228 -9.25389,17.32643 -26.77721,17.32643h-18.70467v-19.29534h7.28498v12.20726h11.41969c13.19172,0 19.68913,-3.34715 19.68913,-10.23834c0,-5.90674 -5.31607,-8.86011 -15.7513,-8.86011h-22.64249v-20.67358h24.8083c21.46115,0 34.84976,11.02591 34.84976,30.51814c0,20.4767 -12.79793,29.73058 -39.77204,29.73058z" data-paper-data="{&quot;isPathIcon&quot;:true}" style="animation-play-state: paused;"></path></g></g><animate attributeName="opacity" dur="2.5s" from="0" to="1" values="0; 0; 1" repeatCount="indefinite" style="animation-play-state: paused;"></animate></g></svg>