<svg xmlns="http://www.w3.org/2000/svg" class="svg-bc-right-top standalone" width="100%" viewBox="65 166.08805414541877 106.91196368044868 137.8238917091624"><g data-paper-data="{&quot;fillRule&quot;:&quot;nonzero&quot;,&quot;fillRuleOriginal&quot;:&quot;nonzero&quot;,&quot;isIcon&quot;:true,&quot;iconStyle&quot;:&quot;standalone&quot;,&quot;selectedEffects&quot;:{&quot;container&quot;:&quot;&quot;,&quot;transformation&quot;:&quot;&quot;,&quot;pattern&quot;:&quot;&quot;},&quot;bounds&quot;:{&quot;x&quot;:65,&quot;y&quot;:166.08805414541877,&quot;width&quot;:106.91196368044868,&quot;height&quot;:137.8238917091624},&quot;iconType&quot;:&quot;icon&quot;,&quot;rawIconId&quot;:&quot;758dbc46-ade0-45b0-9750-cd4a9fade8db&quot;,&quot;isDetailed&quot;:false,&quot;suitableAsStandaloneIcon&quot;:true}" fill-rule="nonzero"><path d="M138.24356,255.67358l6.49741,-2.55959l27.17099,50.79795h-38.78758l-26.97411,-50.60106h-6.89119v50.60106h-34.25908v-137.82388h7.08808v130.7358h19.88602v-50.40417l18.31089,-0.19689l27.17099,50.60106h22.64249zM85.4767,173.17614v118.72543h-7.08808v-125.81352h34.84976c22.64249,0 38.78758,7.48187 46.66323,21.46115c3.34715,6.49741 5.11917,13.78239 5.11917,21.85493c0,24.21763 -12.60104,38.59069 -36.228,42.72541l21.46115,39.96893h-8.07255l-24.61141,-45.48188l5.31607,-0.59067c22.24871,-2.36269 35.04664,-15.35752 35.04664,-36.62178c0,-23.43006 -16.14508,-36.228 -44.69432,-36.228zM91.97411,240.11917v-6.89119h19.68913c22.24871,0 32.68395,-7.28498 32.68395,-22.83939c0,-14.96374 -10.23834,-23.43006 -27.76167,-23.43006h-17.52332v6.69431h15.35752c10.23834,0 16.93265,2.36269 20.2798,7.28498c1.77202,2.16581 2.55959,4.92228 2.55959,8.46632c0,11.2228 -9.25389,17.32643 -26.77721,17.32643h-18.70467v-19.29534h7.28498v12.20726h11.41969c13.19172,0 19.68913,-3.34715 19.68913,-10.23834c0,-5.90674 -5.31607,-8.86011 -15.7513,-8.86011h-22.64249v-20.67358h24.8083c21.46115,0 34.84976,11.02591 34.84976,30.51814c0,20.4767 -12.79793,29.73058 -39.77204,29.73058z" data-paper-data="{&quot;isPathIcon&quot;:true}" style="fill: rgb(0, 98, 152);"></path></g></svg>